<svg width="434" height="268" fill="none" xmlns="http://www.w3.org/2000/svg"><g clip-path="url(#clip0_893_15)"><path d="M353.233 49.57h-11.866v101.02a12.047 12.047 0 01-3.539 8.534 12.104 12.104 0 01-3.921 2.617 12.112 12.112 0 01-4.625.918h-90.716v.116a12.057 12.057 0 003.54 8.534 12.085 12.085 0 008.546 3.535h102.581a12.095 12.095 0 0011.166-7.451c.607-1.464.92-3.033.92-4.618V61.639c0-3.2-1.274-6.27-3.54-8.534a12.096 12.096 0 00-8.546-3.535z" fill="#225D7E" fill-opacity=".26"/><path d="M409.707 209.648c.21.01.418-.045.595-.158a1.02 1.02 0 00.454-1.083 1.03 1.03 0 00-.306-.534l-.07-.279.028-.067a2.753 2.753 0 014.069-1.212c.451.302.803.73 1.011 1.231.83 1.998 1.888 4 2.149 6.113a8.125 8.125 0 01-.143 2.798 32.58 32.58 0 002.971-13.548 31.461 31.461 0 00-.645-6.36 32.984 32.984 0 00-6.553-13.985 8.795 8.795 0 01-3.657-3.789 6.69 6.69 0 01-.61-1.831c.178.024.671-2.684.537-2.85.248-.376.692-.563.963-.93 1.348-1.825 3.205-1.506 4.174.973 2.071 1.044 2.091 2.775.82 4.44-.808 1.059-.919 2.492-1.628 3.625.073.094.149.184.222.277a33.313 33.313 0 013.471 5.492c-.237-2.173.045-4.37.825-6.413.79-1.903 2.271-3.506 3.575-5.151a2.835 2.835 0 012.992-.99 2.83 2.83 0 012.062 2.381l.008.073a9.204 9.204 0 00-.569.348 1.382 1.382 0 00-.585 1.455 1.389 1.389 0 001.146 1.073l.028.004a13.805 13.805 0 01-.365 2.067c1.673 6.46-1.938 8.813-7.095 8.919-.114.058-.225.116-.339.172a33.825 33.825 0 011.827 8.587 32.018 32.018 0 01-.023 5.191l.009-.061a8.489 8.489 0 012.904-4.906c2.235-1.833 5.393-2.508 7.804-3.982a1.602 1.602 0 011.718-.004 1.599 1.599 0 01.727 1.555l-.01.064a9.522 9.522 0 00-1.616.852 1.394 1.394 0 00-.519.637 1.394 1.394 0 001.079 1.891l.029.004.058.009a13.832 13.832 0 01-2.548 3.985c-1.046 5.64-5.539 6.175-10.344 4.532h-.003A34.93 34.93 0 01418 217h-8c-.029-.09-.145-.275-.171-.365.754.047 1.51.002 2.253-.134-.604-.74-1.208-1.487-1.812-2.227a.4.4 0 01-.038-.044c-.307-.379-.616-.755-.923-1.134-.016-1.161.118-2.32.398-3.448z" fill="#F2F2F2" fill-opacity=".3"/><path d="M319.786 35.829a3.72 3.72 0 002.657 1.644 3.73 3.73 0 002.976-.956l16.931 7.628 3.264-4.157-20.175-8.913a3.724 3.724 0 00-6.227 2.177 3.71 3.71 0 00.574 2.577z" fill="#EEC9CE"/><path d="M392.446 40.585l1.679 9.503a3.231 3.231 0 01-2.931 3.78l-28.533 2.24-33.539-14.99 4.006-7.593 29.115 9.207 30.203-2.147z" fill="#57B536"/><path d="M325.666 33.775h-102.58c-6.675 0-12.086 5.404-12.086 12.07v101.134c0 6.665 5.411 12.069 12.086 12.069h102.58c6.675 0 12.086-5.404 12.086-12.069V45.845c0-6.666-5.411-12.07-12.086-12.07z" fill="#F2F2F2"/><path d="M223.086 36.257a9.612 9.612 0 00-6.789 2.808 9.584 9.584 0 00-2.811 6.78v101.134a9.582 9.582 0 002.811 6.779 9.61 9.61 0 006.789 2.808h65.469a46.77 46.77 0 0017.876-3.551 46.702 46.702 0 0015.154-10.112 46.616 46.616 0 0013.682-32.984V45.844a9.585 9.585 0 00-5.927-8.857 9.612 9.612 0 00-3.674-.73h-102.58z" fill="#fff"/><path d="M303.052 66.95h-57.576a1.99 1.99 0 110-3.979h57.576a1.99 1.99 0 110 3.979zm0 42.421h-57.576a1.99 1.99 0 110-3.979h57.576a1.99 1.99 0 110 3.979zm23.38-21.197H222.095a1.992 1.992 0 01-1.992-1.989 1.992 1.992 0 011.992-1.99h104.337a1.994 1.994 0 011.993 1.99 1.994 1.994 0 01-1.993 1.99z" fill="#F2F2F2"/><path d="M388.841 82.468l-10.394 22.113 39.983-4.044-8.346-21.228-21.243 3.16zm9.295 127.097l-3.791-.032-1.678-14.942 5.595.047-.126 14.927z" fill="#EEC9CE"/><path d="M385.993 215.585a1.696 1.696 0 001.681 1.707l7.537.063 1.32-2.671.484 2.685 2.844.026-.718-9.575-.989-.066-4.036-.278-1.302-.087-.023 2.709-6.055 4.101a1.685 1.685 0 00-.743 1.386z" fill="#2F2E41"/><path d="M356.183 209.582l-3.614-1.143 2.792-14.775 5.335 1.687-4.513 14.231z" fill="#EEC9CE"/><path d="M342.805 211.774a1.692 1.692 0 001.104 2.125l7.186 2.271 2.047-2.166-.326 2.709 2.711.859 2.13-9.363-.926-.353-3.776-1.45-1.219-.465-.819 2.582-6.994 2.144a1.694 1.694 0 00-1.118 1.107zm73.804-117.455l-36.354 6.652s-5.832 4.356-4.272 5.916c1.56 1.56 1.802 1.318.777 2.342-1.025 1.023-3.24 2.391-3.262 3.287-.022.895-16.291 41.059-16.291 41.059s1.808-.902.452.452-1.356 2.472-1.356 2.472l-6.326 42.656 10.274.604 10.062-38.888 22.441-36.331s2.227 32.398 2.32 34.552c.094 2.155 1.449-.552.094 2.155-1.356 2.708-2.26.903-1.356 2.708.904 1.805-3.256 38.555-3.256 38.555h9.378l20.115-76.173s7.156-21.777-3.44-32.018z" fill="#2F2E41"/><path d="M405.9 33.39l-14.563-1.511-3.773 4.891-4.395 2.338a10.946 10.946 0 00-5.792 10.363l5.137 29.838s-4.339 9.757-1.356 12.185c2.983 2.428-2.306 8.442 4.068 5.415 6.373-3.027 33.893.452 33.893.452l-5.875-16.698 4.389-16.408.483-13.757c.09-2.571-.674-5.1-2.173-7.191a11.67 11.67 0 00-6.115-4.374l-.614-.185-3.314-5.358z" fill="#57B536"/><path d="M425.948 22.241c.096 4.1-1.438 8.068-3.642 11.554-.655-2.035-1.832-3.887-3.06-5.653.619 3.82-.04 7.737-1.875 11.145a2.639 2.639 0 01-.201.129c-1.796 1.079-4.073 1.516-6.017.736 4.015-4.322 4.526-11.482 1.16-16.33-.953-1.375-2.185-2.592-2.775-4.157-.932-2.498-.037-5.248.529-7.852.528-2.424.621-5.308-1.008-7.084a1.71 1.71 0 011.568-.72c1.004.14 1.735 1.012 2.201 1.91.465.897.772 1.892 1.42 2.667 1.202 1.45 3.247 1.794 4.971 2.558 4.174 1.857 6.629 6.536 6.729 11.097z" fill="#2F2E41"/><path d="M426.85 117.245a4.065 4.065 0 004.067-4.062 4.064 4.064 0 00-4.067-4.061 4.064 4.064 0 00-4.068 4.061 4.065 4.065 0 004.068 4.062z" fill="#57B536"/><path d="M390.809 19.897c.238-.833-1.406 4.263-.613 4.355 3.614.414 8.575 2.57 11.092 3.575.113-.013.227-.026.337-.043.27-.03.533-.072.793-.121 5.861-1.108 8.114-10.098 8.114-10.18 0-.404-.971-11.505-2.501-11.669a11.295 11.295 0 00-1.21-.066h-3.797a17.692 17.692 0 00-2.384-.345h-.007c-7.644-.581-13.671 4.072-13.108 9.733.003.007.01.013.013.02a11.629 11.629 0 01.751 1.285c.696 1.445-1.095 3.265.093 3.604 1.579.452-4.154 15.296 2.098 15.296-3.041.863-.329-13.143.329-15.444z" fill="#2F2E41"/><path d="M397.633 28.607c4.965 0 8.99-4.02 8.99-8.977 0-4.959-4.025-8.978-8.99-8.978s-8.99 4.02-8.99 8.978 4.025 8.977 8.99 8.977z" fill="#EEC9CE"/><path d="M387.525 15.626c.15.079.297.151.447.223.157.076.313.151.47.22 3.011 1.364 5.461 1.515 6.948-.443a8.27 8.27 0 01.683-2.99 4.8 4.8 0 00.793 2.99h2.994c3.084 2.044 4.667 2.257 2.527 8.967-.597 1.87-2.969 12.75-2.036 14.362.27-.03 3.143-11.945 3.403-11.995 5.861-1.107 9.584-10.75 9.108-11.295a10.041 10.041 0 00-1.044-4.472 10.287 10.287 0 00-3.914-4.252 18.142 18.142 0 00-3.127-1.173l-.076-.02a18.458 18.458 0 00-3.111-.559c-.05-.002-.1-.006-.146-.006a1.6 1.6 0 00-.804.22c-.003 0-.003.004-.006.004a1.513 1.513 0 00-.447.397 1.53 1.53 0 00-.327.95h-3.334c-.123 0-.246.003-.37.01a8.944 8.944 0 00-5.935 2.53 8.92 8.92 0 00-2.696 6.332z" fill="#2F2E41"/><path d="M407.182 11.83a5.918 5.918 0 005.922-5.915A5.918 5.918 0 00407.182 0a5.919 5.919 0 00-5.923 5.915 5.919 5.919 0 005.923 5.914z" fill="#2F2E41"/><path d="M426.895 114.858a3.717 3.717 0 00-1.679-5.414l.029-18.548-5.136-1.27.127 22.031a3.711 3.711 0 001.906 4.554 3.726 3.726 0 004.753-1.353z" fill="#EEC9CE"/><path d="M401.464 46.722l7.991-5.424a3.24 3.24 0 013.783.107c.358.273.655.619.871 1.014l13.74 25.072.052 36.695-8.578-.537-3.521-30.295-14.338-26.632z" fill="#57B536"/><path d="M340.416 130h-85.411c-1.858 0-3.64.737-4.953 2.049a6.99 6.99 0 000 9.892 7.007 7.007 0 004.953 2.049h85.411a7.01 7.01 0 004.953-2.049A6.992 6.992 0 00340.416 130z" fill="#fff"/><path d="M340.086 144.38h-85.411a7.444 7.444 0 110-14.892h85.411c1.978 0 3.874.785 5.273 2.181a7.441 7.441 0 010 10.531 7.464 7.464 0 01-5.273 2.18zm-85.411-13.989a6.555 6.555 0 00-4.633 1.916 6.538 6.538 0 000 9.254 6.556 6.556 0 004.633 1.917h85.411c1.738 0 3.405-.69 4.633-1.917a6.538 6.538 0 000-9.254 6.555 6.555 0 00-4.633-1.916h-85.411zm90.009 37.588h-37.692a1.99 1.99 0 110-3.979h37.692a1.995 1.995 0 011.992 1.989 1.99 1.99 0 01-1.992 1.99z" fill="#64CE34"/></g><g clip-path="url(#clip1_893_15)"><path d="M169.401 211.06a.854.854 0 00.872-1.032.848.848 0 00-.254-.444l-.059-.232.024-.056a2.286 2.286 0 013.382-1.008c.374.251.666.607.839 1.024.69 1.661 1.569 3.326 1.786 5.083a6.769 6.769 0 01-.119 2.327 27.097 27.097 0 002.469-11.266c0-.976-.054-1.951-.163-2.92a26.987 26.987 0 00-.373-2.368 27.423 27.423 0 00-5.445-11.629 7.303 7.303 0 01-3.039-3.151 5.565 5.565 0 01-.507-1.522c.148.019.558-2.232.446-2.371.207-.312.576-.468.801-.773 1.12-1.517 2.663-1.252 3.468.81 1.721.868 1.737 2.307.682 3.691-.672.881-.764 2.072-1.354 3.015.061.078.124.153.185.231a27.616 27.616 0 012.884 4.566 11.467 11.467 0 01.686-5.332c.656-1.583 1.887-2.916 2.97-4.284 1.302-1.643 3.971-.926 4.2 1.157l.006.061c-.161.09-.318.187-.472.289a1.154 1.154 0 00.466 2.102l.023.003c-.057.58-.158 1.154-.303 1.719 1.39 5.372-1.611 7.328-5.896 7.416-.094.049-.187.097-.281.143a28.19 28.19 0 011.518 7.14c.11 1.437.104 2.881-.019 4.317l.007-.051a7.063 7.063 0 012.413-4.079c1.857-1.524 4.481-2.086 6.485-3.311a1.331 1.331 0 011.919.555 1.327 1.327 0 01.104.788 7.995 7.995 0 00-.87.419 7.859 7.859 0 00-.473.289 1.15 1.15 0 00-.486 1.211 1.156 1.156 0 00.952.891l.024.004.048.007a11.473 11.473 0 01-2.117 3.313c-.869 4.69-4.602 5.135-8.596 3.769h-.002a28.154 28.154 0 01-1.894 5.526h-6.767c-.024-.075-.046-.152-.068-.227a7.728 7.728 0 001.872-.112l-1.506-1.852a.267.267 0 01-.031-.036l-.767-.943a11.21 11.21 0 01.33-2.867zm33.781-3.752c.283.013.563-.061.802-.213a1.375 1.375 0 00.611-1.46 1.376 1.376 0 00-.412-.72l-.095-.377.038-.09a3.706 3.706 0 013.431-2.262 3.71 3.71 0 013.413 2.288c1.12 2.694 2.545 5.393 2.896 8.242a10.95 10.95 0 01-.193 3.772 43.945 43.945 0 004.004-18.266c0-1.582-.088-3.163-.264-4.735a44.044 44.044 0 00-.605-3.84 44.482 44.482 0 00-8.829-18.855 11.849 11.849 0 01-4.927-5.109 9.008 9.008 0 01-.822-2.468c.239.031.904-3.62.723-3.844.334-.506.933-.758 1.298-1.253 1.816-2.46 4.318-2.031 5.624 1.312 2.79 1.408 2.817 3.741 1.105 5.986-1.09 1.428-1.239 3.36-2.195 4.888.099.126.201.248.299.374a44.752 44.752 0 014.677 7.404 18.609 18.609 0 011.112-8.646c1.064-2.566 3.059-4.727 4.816-6.946 2.111-2.664 6.438-1.501 6.81 1.877l.01.098c-.261.147-.516.303-.766.468a1.877 1.877 0 00-.789 1.962 1.872 1.872 0 001.545 1.446l.038.006c-.093.94-.257 1.872-.492 2.787 2.254 8.71-2.612 11.882-9.56 12.025-.153.079-.303.157-.456.232a45.69 45.69 0 012.462 11.577c.178 2.33.168 4.671-.032 6.999l.012-.082a11.46 11.46 0 013.913-6.614c3.011-2.472 7.266-3.382 10.514-5.369 1.564-.957 3.568.279 3.295 2.091l-.013.087a12.466 12.466 0 00-2.179 1.148 1.877 1.877 0 00-.788 1.963 1.878 1.878 0 001.544 1.445l.038.006.079.012a18.644 18.644 0 01-3.433 5.372c-1.409 7.604-7.462 8.326-13.937 6.111h-.004a45.676 45.676 0 01-3.072 8.96h-10.971c-.04-.121-.075-.247-.111-.369 1.016.064 2.036.003 3.036-.181-.814-.998-1.628-2.004-2.442-3.002a.936.936 0 01-.051-.059c-.413-.511-.83-1.018-1.243-1.529v-.001a18.242 18.242 0 01.535-4.648h.001z" fill="#69BBEA"/><path d="M53.023 122.472c.737-5.642 13.76-5.282 14.989.026.652-.407 2.311-.125 2.93.343.62.469 1.016 1.158 1.404 1.827.53.928 1.08 1.89 1.197 2.955.122 1.063-.296 2.267-1.26 2.741-.765.377-2.448.122-3.289-.047a37.858 37.858 0 01-1.497-.319 2.873 2.873 0 01.273-1.946 2.345 2.345 0 00-1.601 1.185c-.066.127-2.452 18.074-2.452 18.074-.652.078-1.31.095-1.966.049a22.524 22.524 0 01-.22-6.697 19.508 19.508 0 00-1.629 4.019c-.225.781-.41 1.573-.553 2.372-5.678-1.061-13.354-4.715-14.754-10.921l.023-.06a.88.88 0 00-1.452-.942c-.171.176-.324.326-.453.443.498-3.963 3.506-7.529 10.31-13.102z" fill="#2F2E41"/><path d="M135.93 260.648l3.183-1.663-5.048-13.335-4.698 2.455 6.563 12.543z" fill="#EEC9CE"/><path d="M148.775 260.488a1.606 1.606 0 01-.679 2.166l-6.329 3.306-2.269-1.684.753 2.475-2.388 1.249-3.535-8.391.806-.482 3.283-1.977 1.061-.636 1.191 2.277 6.88.848a1.597 1.597 0 011.226.849z" fill="#2F2E41"/><path d="M139.191 211.555l2.316-2.744-9.728-10.43-3.417 4.051 10.829 9.123z" fill="#EEC9CE"/><path d="M151.018 206.543a1.607 1.607 0 01.193 2.262l-4.604 5.456-2.738-.7 1.635 2.006-1.736 2.06-6.454-6.427.563-.751 2.29-3.073.74-.99 1.966 1.656 6.688-1.82a1.597 1.597 0 011.457.321zm-113.944-5.272s-9.83 21.027 30.88 15.361c0 0 21.689-24.02 21.062-26.91 0 0 9.231-9.374 8.78-9.545-.452-.17-.73-.541.016-.507.746.033.746-1.077.746-1.077s16.683 18.08 30.731 27.051l4.856-5.46s-1.894-5.921-2.804-5.921c-.911 0-1.225.219-1.371-.952-.147-1.171.578-2.177-.392-2.28-.969-.104-21.066-23.576-21.066-23.576s-2.168-7.731-8.793-6.235c-6.625 1.497-41.048 29.464-41.048 29.464l-21.597 10.587z" fill="#2F2E41"/><path d="M53.652 217.313l53.782-.446 23.372 37.007 6.605-3.494-1.464-.618s.444-5.143-.099-6.445c-.543-1.303-2.159-.911-2.159-.911l-13.627-31.403a13.184 13.184 0 00-13.566-8.925c-11.276-1.644-29.58-.331-48.595 1.282l-4.25 13.953z" fill="#2F2E41"/><path d="M84.79 154.332a3.977 3.977 0 00-3.343 4.422c.03.208.076.414.14.614l-11.051 8.377 2.28 7.099 13.897-13.11a3.966 3.966 0 002.451-4.172 3.799 3.799 0 00-1.463-2.507 3.805 3.805 0 00-2.911-.723z" fill="#EEC9CE"/><path d="M36.037 154.855l3.974 10.993 15.538 21.943.358-.152c1.336-.576 6.186-2.693 10.748-5.099 4.283-2.26 8.317-4.774 8.943-6.503.067-.182.127-.358.182-.528v-.003c.291-.881.474-1.793.543-2.718.052-.713.006-1.095.104-1.141.075-.033.233.131.582.501.025.024.046.048.07.07 1.263 1.265 2.814 1.101 2.434.5-.388-.616-.185-.603.386-1.246.425-.48 1.806-2.354 2.486-3.28.234-.318.382-.524.382-.524l-.233-.367-.647-1.013-3.075-4.817-.17-.264s-6.32 1.459-7.16 2.845c-.844 1.386 1.272 1.341-.844 1.386-2.116.046-4.274-2.83-2.729.031 1.545 2.857 1.138 3.855-.774 3.403-.777-.185-2.006.4-3.19 1.159v.003c-.74.48-1.455 1-2.14 1.556-.732.588-1.227 1.034-1.227 1.034l-12.002-24.333-1.329-2.694a6.884 6.884 0 00-4.025-3.488l-.416.725a82.218 82.218 0 00-6.769 12.021z" fill="#D53B3B"/><path d="M35.372 189.744c-3.678.856.235 27.617 4.62 27.701 31.872.606 22.168-17.263 23.877-18.974 1.709-1.714 3.25-.485 1.709-3.151-1.123-1.942-2.79-1.654-2.814-2.743-.012-.406.203-1.001.762-1.977 2.052-3.592 2.052-4.662 2.052-4.662a13.182 13.182 0 001.078-3.398 16.12 16.12 0 00.12-5.302 17.232 17.232 0 00-2.831-7.204v-.003a19.232 19.232 0 00-.486-.695c-.385-.525-2.522-.425-2.522-.425l-4.553-19.109 2.634-7.62-12.478-5.842-3.318 5.769-.416.725a82.27 82.27 0 00-6.769 12.021c-1.842 4.098-3.357 8.648-3.412 12.607-.145 10.322 1.636 13.392 1.636 13.392s-4.325 3.23-2.16 5.205c2.16 1.978 6.95 2.83 3.271 3.685z" fill="#D53B3B"/><path d="M91.904 151.818l2.036 1.545a1.914 1.914 0 01.362 2.675l-4.904 6.441-2.895 3.8a1.909 1.909 0 01-2.673.361l-2.038-1.547a1.917 1.917 0 01-.36-2.673l.3-.397 5.941-7.8 1.558-2.044a1.91 1.91 0 011.262-.734 1.898 1.898 0 011.411.373z" fill="#3F3D56"/><path d="M90.84 151.701l2.193 1.529a1.626 1.626 0 01.722 1.129 1.63 1.63 0 01-.365 1.289l-2.87 3.457-1.53 1.841-1.021 1.229-2.283 2.748a2 2 0 01-2.638.328l-1.644-1.145-.546-.382a1.657 1.657 0 01-.71-1.697 1.63 1.63 0 01.351-.725l6.746-8.123.956-1.15a1.993 1.993 0 012.638-.328z" fill="#fff"/><path d="M89.438 160.239a3.972 3.972 0 00-3.343 4.421c.03.209.076.414.14.615l-11.051 8.377 2.28 7.099 13.897-13.111a3.965 3.965 0 002.451-4.171 3.787 3.787 0 00-1.463-2.507 3.807 3.807 0 00-2.808-.739 3.61 3.61 0 00-.103.016z" fill="#EEC9CE"/><path d="M44.366 147.816a6.856 6.856 0 00-5.088 9.052l5.38 14.886 15.54 21.945s18.637-7.867 20.048-11.756c1.412-3.888.137-5.23 1.412-3.888 1.274 1.342 2.89 1.182 2.503.568s-.184-.6.386-1.244c.57-.643 2.868-3.804 2.868-3.804l-4.125-6.461s-6.32 1.458-7.162 2.845c-.842 1.387 1.275 1.342-.842 1.387-2.116.046-4.275-2.831-2.729.028 1.546 2.86 1.138 3.857-.774 3.404-1.913-.453-6.555 3.753-6.555 3.753l-13.334-27.026a6.862 6.862 0 00-7.527-3.689z" fill="#D53B3B"/><path d="M52.319 138.855c-3.864-3.86-3.864-10.12 0-13.981 3.863-3.861 10.127-3.861 13.99 0 3.864 3.861 3.864 10.121 0 13.981-3.863 3.861-10.127 3.861-13.99 0z" fill="#EEC9CE"/><path d="M47.746 121.094c.736-5.641 13.759-5.282 14.989.027.652-.408 2.311-.126 2.93.343.619.468 1.015 1.157 1.404 1.826.53.929 4.24 4.071 4.795 3.155 1.251-2.062 3.704 2.443 1.822 5.46-.452.723-9.177-.438-10.017-.607-.587-.116.418.1 0 0-.136-.654-1.498-4.035-1.176-4.623a2.34 2.34 0 00-1.602 1.184c-.066.127-2.452 18.074-2.452 18.074a10.33 10.33 0 01-1.965.049 22.518 22.518 0 01-.22-6.696 19.506 19.506 0 00-1.63 4.018 24.083 24.083 0 00-.553 2.373c-5.678-1.061-13.353-4.716-14.754-10.922 7.657-2.547 1.624-8.088 8.429-13.661z" fill="#2F2E41"/><path opacity=".3" d="M134.341 149.446c-.127-.872.787-1.726 2.04-1.908 1.254-.183 2.373.376 2.5 1.248.127.871-.787 1.725-2.04 1.908-1.254.182-2.373-.377-2.5-1.248z" fill="#E6E6E6"/><path opacity=".3" d="M119.415 147.99c-.126-.871.787-1.725 2.041-1.908 1.253-.182 2.372.377 2.499 1.248.127.872-.786 1.726-2.04 1.908-1.254.183-2.373-.376-2.5-1.248z" fill="#3F3D56"/><path opacity=".3" d="M138.428 137.371c-.127-.872.787-1.726 2.04-1.908 1.254-.183 2.373.376 2.5 1.248.127.871-.787 1.725-2.04 1.908-1.254.182-2.373-.377-2.5-1.248z" fill="#FF6584"/><path opacity=".3" d="M144.914 132.425c-.006-.801.44-1.453.997-1.457.557-.004 1.014.641 1.02 1.441.006.8-.441 1.452-.998 1.457-.557.004-1.013-.641-1.019-1.441z" fill="#E6E6E6"/><path opacity=".3" d="M147.113 123.212c-.006-.8.441-1.452.998-1.456.557-.005 1.013.641 1.019 1.441.006.8-.44 1.452-.997 1.456-.557.004-1.014-.641-1.02-1.441z" fill="#3F3D56"/><path opacity=".3" d="M130.01 139.426c-.006-.801.441-1.453.997-1.457.557-.004 1.014.641 1.02 1.441.006.8-.441 1.452-.998 1.457-.557.004-1.013-.641-1.019-1.441z" fill="#E6E6E6"/><path opacity=".3" d="M137.223 143.024c-.006-.8.44-1.452.997-1.456.557-.004 1.013.641 1.02 1.441.006.8-.441 1.452-.998 1.456-.557.004-1.013-.641-1.019-1.441z" fill="#FF6584"/><path opacity=".3" d="M127.182 149.676c-.006-.801.441-1.453.998-1.457.557-.004 1.013.641 1.019 1.441.006.8-.44 1.452-.997 1.457-.557.004-1.014-.641-1.02-1.441z" fill="#3F3D56"/><path d="M92.726 158.183c-.136-.098-.05-.453.194-.794.244-.34.552-.538.689-.44.136.097.049.452-.195.793s-.552.538-.688.441z" fill="#3F3D56"/><path d="M93.637 156.969c-.137-.097-.05-.452.194-.793s.552-.538.688-.441c.137.098.05.453-.194.794-.244.34-.552.538-.688.44z" fill="#3F3D56"/></g><defs><clipPath id="clip0_893_15"><path fill="#fff" transform="translate(211)" d="M0 0h223v217H0z"/></clipPath><clipPath id="clip1_893_15"><path fill="#fff" transform="matrix(-1 0 0 1 257 117)" d="M0 0h257v151H0z"/></clipPath></defs></svg>