<svg width="210" height="46" fill="none" xmlns="http://www.w3.org/2000/svg"><g clip-path="url(#clip0_330_1434)"><path d="M0 4a4 4 0 014-4h191.717a4 4 0 013.273 1.7l10.282 14.623c.474.674.728 1.477.728 2.301V42a4 4 0 01-4 4H4a4 4 0 01-4-4V4z" fill="url(#paint0_linear_330_1434)"/><mask id="mask0_330_1434" style="mask-type:alpha" maskUnits="userSpaceOnUse" x="128" y="-5" width="103" height="102"><ellipse cx="179.5" cy="46" rx="51.5" ry="51" fill="#2EA3E6"/></mask><g mask="url(#mask0_330_1434)"><path d="M0 4a4 4 0 014-4h191.717a4 4 0 013.273 1.7l10.282 14.623c.474.674.728 1.477.728 2.301V42a4 4 0 01-4 4H4a4 4 0 01-4-4V4z" fill="#2EA3E6"/></g></g><defs><linearGradient id="paint0_linear_330_1434" x1="-23.508" y1="-6.97" x2="218.251" y2="-28.17" gradientUnits="userSpaceOnUse"><stop stop-color="#6ABD36"/><stop offset="1" stop-color="#058E34"/></linearGradient><clipPath id="clip0_330_1434"><path fill="#fff" d="M0 0h210v46H0z"/></clipPath></defs></svg>