<svg width="578" height="578" fill="none" xmlns="http://www.w3.org/2000/svg"><path d="M340.452 58.08a9 9 0 018.744 2.132L514.46 218.165a9.001 9.001 0 012.525 8.639l-54.159 222.099a9 9 0 01-6.219 6.506l-219.424 64.147a8.998 8.998 0 01-8.743-2.133L63.176 359.47a9 9 0 01-2.526-8.638l54.16-222.1a9 9 0 016.218-6.506L340.452 58.08z" fill="#EDF7E9"/><path d="M419.856 130.172a9 9 0 018.464-3.061l19.294 3.444a9.001 9.001 0 016.882 5.8l6.664 18.431a8.998 8.998 0 01-1.581 8.86l-12.63 14.987a9 9 0 01-8.464 3.061l-19.294-3.444a9 9 0 01-6.882-5.8l-6.664-18.431a8.998 8.998 0 011.581-8.86l12.63-14.987zM232.91 213.987a9 9 0 018.002 4.119l23.048 35.82a8.998 8.998 0 01.434 8.989l-19.497 37.871a8.998 8.998 0 01-7.568 4.87l-42.545 2.051a9.001 9.001 0 01-8.002-4.119l-23.049-35.82a9 9 0 01-.433-8.99l19.496-37.87a8.998 8.998 0 017.569-4.87l42.545-2.051zM250.757 74.99a2.999 2.999 0 012.872.865l8.544 9.082a3 3 0 01.687 2.92l-3.594 11.94a3 3 0 01-2.185 2.056l-12.138 2.857a3 3 0 01-2.873-.865l-8.543-9.082a3 3 0 01-.687-2.92l3.594-11.94a3 3 0 012.185-2.056l12.138-2.857zm91 103a3 3 0 012.872.864l8.544 9.083a3 3 0 01.687 2.92l-3.594 11.941a3 3 0 01-2.185 2.055l-12.138 2.857a3 3 0 01-2.873-.865l-8.543-9.082a3 3 0 01-.687-2.92l3.594-11.941a3 3 0 012.185-2.055l12.138-2.857zm-62.414-79.455A2 2 0 01281.27 98l3.947 1.018a2.001 2.001 0 011.428 1.401l1.092 3.927a2 2 0 01-.499 1.937l-2.855 2.909a2.002 2.002 0 01-1.927.536l-3.947-1.018a2 2 0 01-1.428-1.401l-1.092-3.927a2.001 2.001 0 01.499-1.936l2.855-2.91z" fill="#B5DFA6"/></svg>