<svg width="434" height="268" viewBox="0 0 434 268" fill="none" xmlns="http://www.w3.org/2000/svg">
<g clip-path="url(#clip0_893_15)">
<path d="M353.233 49.5703H341.367V150.589C341.367 152.174 341.055 153.743 340.447 155.208C339.84 156.672 338.95 158.003 337.828 159.123C336.705 160.244 335.373 161.133 333.907 161.74C332.44 162.346 330.869 162.658 329.282 162.658H238.566V162.774C238.566 164.359 238.879 165.928 239.486 167.392C240.094 168.857 240.984 170.187 242.106 171.308C243.229 172.429 244.561 173.318 246.027 173.924C247.494 174.531 249.065 174.843 250.652 174.843H353.233C354.82 174.843 356.391 174.531 357.858 173.924C359.324 173.318 360.656 172.429 361.779 171.308C362.901 170.187 363.791 168.857 364.399 167.392C365.006 165.928 365.319 164.359 365.319 162.774V61.6395C365.319 58.4386 364.045 55.3687 361.779 53.1053C359.512 50.8419 356.438 49.5703 353.233 49.5703Z" fill="#225D7E" fill-opacity="0.26"/>
<path d="M409.707 209.648C409.917 209.658 410.125 209.603 410.302 209.49C410.48 209.378 410.619 209.214 410.7 209.02C410.781 208.826 410.8 208.612 410.756 208.407C410.711 208.202 410.604 208.016 410.45 207.873L410.38 207.594C410.389 207.572 410.398 207.549 410.408 207.527C410.619 207.028 410.974 206.602 411.427 206.304C411.88 206.005 412.411 205.847 412.954 205.849C413.497 205.851 414.027 206.013 414.477 206.315C414.928 206.617 415.28 207.045 415.488 207.546C416.318 209.544 417.376 211.546 417.637 213.659C417.752 214.593 417.703 215.54 417.494 216.457C419.445 212.206 420.459 207.586 420.465 202.909C420.466 201.736 420.4 200.563 420.27 199.397C420.162 198.441 420.012 197.492 419.82 196.549C418.774 191.436 416.528 186.643 413.267 182.564C411.689 181.704 410.413 180.381 409.61 178.775C409.319 178.197 409.114 177.581 409 176.944C409.178 176.968 409.671 174.26 409.537 174.094C409.785 173.718 410.229 173.531 410.5 173.164C411.848 171.339 413.705 171.658 414.674 174.137C416.745 175.181 416.765 176.912 415.494 178.577C414.686 179.636 414.575 181.069 413.866 182.202C413.939 182.296 414.015 182.386 414.088 182.479C415.421 184.192 416.584 186.032 417.559 187.971C417.322 185.798 417.604 183.601 418.384 181.558C419.174 179.655 420.655 178.052 421.959 176.407C422.304 175.965 422.772 175.635 423.305 175.459C423.837 175.283 424.41 175.268 424.951 175.417C425.492 175.566 425.977 175.872 426.344 176.295C426.711 176.719 426.944 177.242 427.013 177.798C427.016 177.823 427.018 177.847 427.021 177.871C426.827 177.98 426.638 178.096 426.452 178.219C426.219 178.374 426.038 178.596 425.934 178.856C425.829 179.116 425.806 179.401 425.867 179.674C425.927 179.947 426.069 180.196 426.274 180.387C426.478 180.579 426.736 180.704 427.013 180.747L427.041 180.751C426.972 181.448 426.85 182.139 426.676 182.818C428.349 189.278 424.738 191.631 419.581 191.737C419.467 191.795 419.356 191.853 419.242 191.909C420.221 194.68 420.836 197.566 421.069 200.496C421.202 202.224 421.194 203.96 421.046 205.687L421.055 205.626C421.428 203.705 422.454 201.973 423.959 200.72C426.194 198.887 429.352 198.212 431.763 196.738C432.019 196.574 432.317 196.486 432.621 196.485C432.926 196.484 433.224 196.571 433.481 196.734C433.738 196.897 433.943 197.13 434.072 197.405C434.201 197.681 434.248 197.988 434.208 198.289L434.198 198.353C433.839 198.5 433.489 198.668 433.15 198.858C432.957 198.967 432.767 199.083 432.582 199.205C432.348 199.361 432.168 199.583 432.063 199.842C431.959 200.102 431.936 200.387 431.996 200.661C432.057 200.934 432.199 201.183 432.403 201.374C432.608 201.565 432.865 201.69 433.142 201.733L433.171 201.737C433.191 201.74 433.209 201.743 433.229 201.746C432.615 203.211 431.753 204.558 430.681 205.731C429.635 211.371 425.142 211.906 420.337 210.263H420.334C419.806 212.551 418.988 214.87 418 217H410C409.971 216.91 409.855 216.725 409.829 216.635C410.583 216.682 411.339 216.637 412.082 216.501C411.478 215.761 410.874 215.014 410.27 214.274C410.256 214.26 410.244 214.246 410.232 214.23C409.925 213.851 409.616 213.475 409.309 213.096C409.293 211.935 409.427 210.776 409.707 209.648Z" fill="#F2F2F2" fill-opacity="0.3"/>
<path d="M319.786 35.8289C320.083 36.2787 320.475 36.6587 320.934 36.9425C321.392 37.2264 321.908 37.4073 322.443 37.4728C322.979 37.5383 323.523 37.4867 324.036 37.3218C324.55 37.1569 325.022 36.8824 325.419 36.5175L342.35 44.1454L345.614 39.9876L325.439 31.0746C324.774 30.4526 323.904 30.0959 322.993 30.0719C322.082 30.0478 321.195 30.3583 320.498 30.9443C319.801 31.5303 319.344 32.3513 319.212 33.2515C319.081 34.1518 319.285 35.0688 319.786 35.8289H319.786Z" fill="#EEC9CE"/>
<path d="M392.446 40.5854L394.125 50.0878C394.203 50.5311 394.188 50.9859 394.08 51.4229C393.972 51.86 393.773 52.2696 393.497 52.6256C393.221 52.9815 392.874 53.2759 392.477 53.4898C392.081 53.7038 391.644 53.8325 391.194 53.8678L362.661 56.1085L329.122 41.1188L333.128 33.5249L362.243 42.7321L392.446 40.5854Z" fill="#57B536"/>
<path d="M325.666 33.7754H223.086C216.411 33.7754 211 39.179 211 45.8446V146.979C211 153.644 216.411 159.048 223.086 159.048H325.666C332.341 159.048 337.752 153.644 337.752 146.979V45.8446C337.752 39.179 332.341 33.7754 325.666 33.7754Z" fill="#F2F2F2"/>
<path d="M223.086 36.2573C221.825 36.2573 220.577 36.5053 219.412 36.9871C218.247 37.4689 217.189 38.1751 216.297 39.0653C215.406 39.9556 214.699 41.0125 214.216 42.1756C213.734 43.3388 213.486 44.5855 213.486 45.8445V146.979C213.486 149.521 214.497 151.96 216.297 153.758C218.098 155.556 220.54 156.566 223.086 156.566H288.555C294.69 156.566 300.764 155.359 306.431 153.015C312.098 150.671 317.248 147.235 321.585 142.903C325.923 138.572 329.364 133.43 331.711 127.77C334.059 122.111 335.267 116.045 335.267 109.919V45.8445C335.267 44.5855 335.018 43.3388 334.536 42.1756C334.053 41.0125 333.346 39.9556 332.455 39.0653C331.563 38.1751 330.505 37.4689 329.34 36.9871C328.175 36.5053 326.927 36.2573 325.666 36.2573H223.086Z" fill="white"/>
<path d="M303.052 66.9497H245.476C244.948 66.9497 244.441 66.7402 244.067 66.3671C243.694 65.994 243.484 65.4881 243.484 64.9605C243.484 64.4329 243.694 63.9269 244.067 63.5538C244.441 63.1808 244.948 62.9712 245.476 62.9712H303.052C303.58 62.9712 304.087 63.1808 304.461 63.5538C304.834 63.9269 305.044 64.4329 305.044 64.9605C305.044 65.4881 304.834 65.994 304.461 66.3671C304.087 66.7402 303.58 66.9497 303.052 66.9497Z" fill="#F2F2F2"/>
<path d="M303.052 109.371H245.476C244.948 109.371 244.441 109.161 244.067 108.788C243.694 108.415 243.484 107.909 243.484 107.381C243.484 106.854 243.694 106.348 244.067 105.975C244.441 105.602 244.948 105.392 245.476 105.392H303.052C303.58 105.392 304.087 105.602 304.461 105.975C304.834 106.348 305.044 106.854 305.044 107.381C305.044 107.909 304.834 108.415 304.461 108.788C304.087 109.161 303.58 109.371 303.052 109.371Z" fill="#F2F2F2"/>
<path d="M326.432 88.1744H222.095C221.567 88.1744 221.06 87.9648 220.687 87.5917C220.313 87.2187 220.103 86.7127 220.103 86.1851C220.103 85.6575 220.313 85.1515 220.687 84.7784C221.06 84.4054 221.567 84.1958 222.095 84.1958H326.432C326.961 84.1958 327.467 84.4054 327.841 84.7784C328.215 85.1515 328.425 85.6575 328.425 86.1851C328.425 86.7127 328.215 87.2187 327.841 87.5917C327.467 87.9648 326.961 88.1744 326.432 88.1744Z" fill="#F2F2F2"/>
<path d="M388.841 82.4683L378.447 104.581L418.43 100.537L410.084 79.3093L388.841 82.4683Z" fill="#EEC9CE"/>
<path d="M398.136 209.565L394.345 209.533L392.667 194.591L398.262 194.638L398.136 209.565Z" fill="#EEC9CE"/>
<path d="M385.993 215.585C385.99 216.034 386.165 216.466 386.48 216.786C386.795 217.106 387.224 217.288 387.674 217.292L395.211 217.355L396.531 214.684L397.015 217.369L399.859 217.395L399.141 207.82L398.152 207.754L394.116 207.476L392.814 207.389L392.791 210.098L386.736 214.199C386.509 214.353 386.323 214.559 386.194 214.801C386.065 215.042 385.996 215.311 385.993 215.585Z" fill="#2F2E41"/>
<path d="M356.183 209.582L352.569 208.439L355.361 193.664L360.696 195.351L356.183 209.582Z" fill="#EEC9CE"/>
<path d="M342.805 211.774C342.67 212.202 342.71 212.666 342.917 213.064C343.124 213.463 343.481 213.763 343.909 213.899L351.095 216.17L353.142 214.004L352.816 216.713L355.527 217.572L357.657 208.209L356.731 207.856L352.955 206.406L351.736 205.941L350.917 208.523L343.923 210.667C343.661 210.747 343.422 210.89 343.228 211.083C343.033 211.276 342.888 211.513 342.805 211.774Z" fill="#2F2E41"/>
<path d="M416.609 94.3188L380.255 100.971C380.255 100.971 374.423 105.327 375.983 106.887C377.543 108.447 377.785 108.205 376.76 109.229C375.735 110.252 373.52 111.62 373.498 112.516C373.476 113.411 357.207 153.575 357.207 153.575C357.207 153.575 359.015 152.673 357.659 154.027C356.303 155.381 356.303 156.499 356.303 156.499L349.977 199.155L360.251 199.759L370.313 160.871L392.754 124.54C392.754 124.54 394.981 156.938 395.074 159.092C395.168 161.247 396.523 158.54 395.168 161.247C393.812 163.955 392.908 162.15 393.812 163.955C394.716 165.76 390.556 202.51 390.556 202.51H399.934L420.049 126.337C420.049 126.337 427.205 104.56 416.609 94.3188Z" fill="#2F2E41"/>
<path d="M405.9 33.3897L391.337 31.8787L387.564 36.7703L383.169 39.108C381.309 40.0973 379.773 41.6007 378.746 43.4384C377.719 45.2761 377.244 47.3703 377.377 49.4706L382.514 79.3092C382.514 79.3092 378.175 89.0656 381.158 91.4939C384.141 93.9222 378.852 99.9362 385.226 96.9094C391.599 93.8825 419.119 97.3606 419.119 97.3606L413.244 80.6631L417.633 64.2554L418.116 50.4978C418.206 47.927 417.442 45.3986 415.943 43.3067C414.444 41.2148 412.294 39.6769 409.828 38.9328L409.214 38.7476L405.9 33.3897Z" fill="#57B536"/>
<path d="M425.948 22.2411C426.044 26.3401 424.51 30.3092 422.306 33.7953C421.651 31.7602 420.474 29.9079 419.246 28.1421C419.865 31.9619 419.206 35.8789 417.371 39.2869C417.306 39.3331 417.239 39.376 417.17 39.4155C415.374 40.4945 413.097 40.9315 411.153 40.1522C415.168 35.8304 415.679 28.6697 412.313 23.8221C411.36 22.4466 410.128 21.2301 409.538 19.6647C408.606 17.167 409.501 14.4171 410.067 11.813C410.595 9.3894 410.688 6.5053 409.059 4.72912C409.233 4.4809 409.47 4.28331 409.746 4.15661C410.021 4.02991 410.326 3.97865 410.627 4.00808C411.631 4.14969 412.362 5.02106 412.828 5.91852C413.293 6.81595 413.6 7.81061 414.248 8.58577C415.45 10.0367 417.495 10.3797 419.219 11.1443C423.393 13.0012 425.848 17.68 425.948 22.2411Z" fill="#2F2E41"/>
<path d="M426.85 117.245C429.096 117.245 430.917 115.426 430.917 113.183C430.917 110.94 429.096 109.122 426.85 109.122C424.603 109.122 422.782 110.94 422.782 113.183C422.782 115.426 424.603 117.245 426.85 117.245Z" fill="#57B536"/>
<path d="M390.809 19.8974C391.047 19.0636 389.403 24.1604 390.196 24.2524C393.81 24.6664 398.771 26.8216 401.288 27.8271C401.401 27.8139 401.515 27.8008 401.625 27.7844C401.895 27.7548 402.158 27.7121 402.418 27.6628C408.279 26.5555 410.532 17.5652 410.532 17.4831C410.532 17.0789 409.561 5.97847 408.031 5.8142C407.629 5.77065 407.225 5.74871 406.821 5.74848H403.024C402.238 5.5794 401.441 5.46413 400.64 5.40347H400.633C392.989 4.82186 386.962 9.47462 387.525 15.1362C387.528 15.1427 387.535 15.1493 387.538 15.1559C387.702 15.399 387.845 15.6291 387.972 15.8492C388.095 16.0562 388.199 16.2534 388.289 16.4407C388.985 17.8864 387.194 19.7057 388.382 20.0453C389.961 20.4969 384.228 35.3409 390.48 35.3409C387.439 36.2043 390.151 22.1975 390.809 19.8974Z" fill="#2F2E41"/>
<path d="M397.633 28.6072C402.598 28.6072 406.623 24.5878 406.623 19.6295C406.623 14.6713 402.598 10.6519 397.633 10.6519C392.668 10.6519 388.643 14.6713 388.643 19.6295C388.643 24.5878 392.668 28.6072 397.633 28.6072Z" fill="#EEC9CE"/>
<path d="M387.525 15.6258C387.675 15.7047 387.822 15.777 387.972 15.8493C388.129 15.9248 388.285 16.0004 388.442 16.0694C391.453 17.4331 393.903 17.5842 395.39 15.6258C395.429 14.5954 395.661 13.5813 396.073 12.6357C396 13.6925 396.279 14.7437 396.866 15.6258H399.86C402.944 17.6696 404.527 17.8832 402.387 24.5929C401.79 26.4626 399.418 37.3421 400.351 38.9554C400.621 38.9259 403.494 27.0095 403.754 26.9602C409.615 25.8528 413.338 16.2107 412.862 15.6653C412.864 14.1141 412.507 12.5835 411.818 11.1932C410.947 9.43174 409.589 7.95628 407.904 6.9413C406.9 6.45513 405.854 6.06245 404.777 5.76825C404.751 5.76167 404.727 5.75509 404.701 5.74853C404.371 5.6598 404.034 5.57766 403.697 5.50865C403.002 5.36198 402.298 5.25556 401.59 5.18993C401.54 5.18664 401.49 5.18335 401.444 5.18335C401.161 5.18401 400.884 5.26002 400.64 5.40352C400.637 5.40352 400.637 5.40679 400.634 5.40679C400.46 5.50829 400.308 5.64346 400.187 5.80437C399.974 6.07512 399.859 6.40973 399.86 6.75399H396.526C396.403 6.75399 396.28 6.75727 396.156 6.76383C393.931 6.83977 391.815 7.7421 390.221 9.29425C388.627 10.8464 387.671 12.9367 387.539 15.156C387.529 15.3137 387.525 15.4681 387.525 15.6258Z" fill="#2F2E41"/>
<path d="M407.182 11.8291C410.453 11.8291 413.104 9.18106 413.104 5.91455C413.104 2.64803 410.453 0 407.182 0C403.911 0 401.259 2.64803 401.259 5.91455C401.259 9.18106 403.911 11.8291 407.182 11.8291Z" fill="#2F2E41"/>
<path d="M426.895 114.858C427.184 114.403 427.371 113.89 427.442 113.356C427.513 112.822 427.467 112.278 427.308 111.764C427.148 111.249 426.878 110.775 426.517 110.374C426.156 109.974 425.712 109.656 425.216 109.444L425.245 90.8957L420.109 89.6262L420.236 111.657C419.94 112.517 419.971 113.456 420.322 114.296C420.673 115.135 421.321 115.817 422.142 116.211C422.963 116.606 423.9 116.686 424.776 116.437C425.652 116.187 426.406 115.625 426.895 114.858V114.858Z" fill="#EEC9CE"/>
<path d="M401.464 46.7218L409.455 41.2981C409.828 41.045 410.25 40.8727 410.693 40.792C411.137 40.7113 411.592 40.7242 412.031 40.8297C412.469 40.9352 412.88 41.131 413.238 41.4047C413.596 41.6783 413.893 42.0237 414.109 42.4186L427.849 67.4914L427.901 104.186L419.323 103.649L415.802 73.3541L401.464 46.7218Z" fill="#57B536"/>
<path d="M340.416 130H255.005C253.147 130 251.365 130.737 250.052 132.049C248.738 133.361 248 135.14 248 136.995C248 138.85 248.738 140.629 250.052 141.941C251.365 143.253 253.147 143.99 255.005 143.99H340.416C342.273 143.99 344.055 143.253 345.369 141.941C346.682 140.629 347.42 138.85 347.42 136.995C347.42 135.14 346.682 133.361 345.369 132.049C344.055 130.737 342.273 130 340.416 130Z" fill="white"/>
<path d="M340.086 144.38H254.675C252.697 144.38 250.801 143.596 249.402 142.2C248.004 140.803 247.219 138.909 247.219 136.934C247.219 134.959 248.004 133.065 249.402 131.669C250.801 130.273 252.697 129.488 254.675 129.488H340.086C342.064 129.488 343.96 130.273 345.359 131.669C346.757 133.065 347.543 134.959 347.543 136.934C347.543 138.909 346.757 140.803 345.359 142.2C343.96 143.596 342.064 144.38 340.086 144.38ZM254.675 130.391C252.937 130.391 251.27 131.08 250.042 132.307C248.813 133.534 248.122 135.199 248.122 136.934C248.122 138.67 248.813 140.334 250.042 141.561C251.27 142.788 252.937 143.478 254.675 143.478H340.086C341.824 143.478 343.491 142.788 344.719 141.561C345.948 140.334 346.639 138.67 346.639 136.934C346.639 135.199 345.948 133.534 344.719 132.307C343.491 131.08 341.824 130.391 340.086 130.391H254.675Z" fill="#64CE34"/>
<path d="M344.684 167.979H306.992C306.464 167.979 305.957 167.769 305.583 167.396C305.21 167.023 305 166.517 305 165.989C305 165.462 305.21 164.956 305.583 164.583C305.957 164.21 306.464 164 306.992 164H344.684C345.213 164 345.719 164.21 346.093 164.583C346.466 164.956 346.676 165.462 346.676 165.989C346.676 166.517 346.466 167.023 346.093 167.396C345.719 167.769 345.213 167.979 344.684 167.979Z" fill="#64CE34"/>
</g>
<g clip-path="url(#clip1_893_15)">
<path d="M169.401 211.06C169.576 211.068 169.749 211.022 169.896 210.929C170.044 210.835 170.159 210.699 170.227 210.538C170.294 210.377 170.31 210.199 170.273 210.028C170.236 209.857 170.147 209.702 170.019 209.584L169.96 209.352C169.968 209.333 169.976 209.315 169.984 209.296C170.159 208.881 170.454 208.527 170.831 208.279C171.207 208.031 171.648 207.899 172.1 207.901C172.551 207.902 172.991 208.037 173.366 208.288C173.74 208.539 174.032 208.895 174.205 209.312C174.895 210.973 175.774 212.638 175.991 214.395C176.086 215.172 176.046 215.959 175.872 216.722C177.494 213.187 178.336 209.345 178.341 205.456C178.341 204.48 178.287 203.505 178.178 202.536C178.089 201.741 177.964 200.951 177.805 200.168C176.936 195.916 175.07 191.93 172.36 188.539C171.048 187.824 169.988 186.724 169.321 185.388C169.079 184.908 168.909 184.395 168.814 183.866C168.962 183.885 169.372 181.634 169.26 181.495C169.467 181.183 169.836 181.027 170.061 180.722C171.181 179.205 172.724 179.47 173.529 181.532C175.25 182.4 175.266 183.839 174.211 185.223C173.539 186.104 173.447 187.295 172.857 188.238C172.918 188.316 172.981 188.391 173.042 188.469C174.15 189.893 175.116 191.422 175.926 193.035C175.729 191.228 175.964 189.401 176.612 187.703C177.268 186.12 178.499 184.787 179.582 183.419C180.884 181.776 183.553 182.493 183.782 184.576C183.784 184.596 183.786 184.616 183.788 184.637C183.627 184.727 183.47 184.824 183.316 184.926C183.122 185.055 182.972 185.24 182.885 185.456C182.798 185.671 182.779 185.909 182.829 186.136C182.88 186.363 182.998 186.57 183.168 186.729C183.338 186.888 183.552 186.992 183.782 187.028L183.805 187.031C183.748 187.611 183.647 188.185 183.502 188.75C184.892 194.122 181.891 196.078 177.606 196.166C177.512 196.215 177.419 196.263 177.325 196.309C178.138 198.613 178.649 201.014 178.843 203.449C178.953 204.886 178.947 206.33 178.824 207.766L178.831 207.715C179.141 206.118 179.994 204.678 181.244 203.636C183.101 202.112 185.725 201.55 187.729 200.325C187.942 200.188 188.189 200.115 188.442 200.115C188.695 200.114 188.943 200.186 189.157 200.321C189.37 200.457 189.541 200.651 189.648 200.88C189.755 201.109 189.794 201.364 189.761 201.615C189.758 201.632 189.755 201.65 189.752 201.668C189.454 201.79 189.163 201.93 188.882 202.087C188.721 202.178 188.563 202.274 188.409 202.376C188.215 202.506 188.065 202.69 187.979 202.906C187.892 203.122 187.872 203.359 187.923 203.587C187.973 203.814 188.091 204.02 188.261 204.18C188.431 204.339 188.645 204.443 188.875 204.478L188.899 204.482C188.916 204.484 188.93 204.487 188.947 204.489C188.437 205.707 187.721 206.828 186.83 207.802C185.961 212.492 182.228 212.937 178.234 211.571H178.232C177.794 213.474 177.159 215.326 176.338 217.097H169.571C169.547 217.022 169.525 216.945 169.503 216.87C170.129 216.909 170.758 216.871 171.375 216.758C170.873 216.142 170.371 215.522 169.869 214.906C169.858 214.895 169.847 214.883 169.838 214.87C169.583 214.555 169.326 214.242 169.071 213.927L169.071 213.927C169.057 212.961 169.168 211.997 169.401 211.06L169.401 211.06Z" fill="#69BBEA"/>
<path d="M203.182 207.308C203.465 207.321 203.745 207.247 203.984 207.095C204.224 206.944 204.411 206.722 204.52 206.461C204.629 206.2 204.655 205.911 204.595 205.635C204.535 205.358 204.391 205.107 204.183 204.915C204.148 204.776 204.123 204.677 204.088 204.538C204.101 204.508 204.113 204.478 204.126 204.448C204.411 203.775 204.889 203.201 205.499 202.799C206.11 202.396 206.825 202.183 207.557 202.186C208.288 202.189 209.002 202.407 209.61 202.814C210.217 203.221 210.69 203.799 210.97 204.474C212.09 207.168 213.515 209.867 213.866 212.716C214.021 213.975 213.955 215.251 213.673 216.488C216.303 210.757 217.668 204.527 217.677 198.222C217.677 196.64 217.589 195.059 217.413 193.487C217.268 192.198 217.066 190.918 216.808 189.647C215.398 182.753 212.373 176.291 207.979 170.792C205.853 169.632 204.133 167.849 203.052 165.683C202.66 164.904 202.383 164.073 202.23 163.215C202.469 163.246 203.134 159.595 202.953 159.371C203.287 158.865 203.886 158.613 204.251 158.118C206.067 155.658 208.569 156.087 209.875 159.43C212.665 160.838 212.692 163.171 210.98 165.416C209.89 166.844 209.741 168.776 208.785 170.304C208.884 170.43 208.986 170.552 209.084 170.678C210.881 172.987 212.448 175.467 213.761 178.082C213.442 175.152 213.823 172.189 214.873 169.436C215.937 166.87 217.932 164.709 219.689 162.49C221.8 159.826 226.127 160.989 226.499 164.367C226.502 164.399 226.506 164.432 226.509 164.465C226.248 164.612 225.993 164.768 225.743 164.933C225.429 165.143 225.186 165.442 225.045 165.792C224.904 166.143 224.873 166.527 224.954 166.895C225.036 167.264 225.227 167.599 225.503 167.857C225.778 168.115 226.125 168.284 226.499 168.341L226.537 168.347C226.444 169.287 226.28 170.219 226.045 171.134C228.299 179.844 223.433 183.016 216.485 183.159C216.332 183.238 216.182 183.316 216.029 183.391C217.348 187.127 218.176 191.019 218.491 194.968C218.669 197.298 218.659 199.639 218.459 201.967L218.471 201.885C218.975 199.296 220.357 196.96 222.384 195.271C225.395 192.799 229.65 191.889 232.898 189.902C234.462 188.945 236.466 190.181 236.193 191.993C236.189 192.022 236.184 192.051 236.18 192.08C235.695 192.277 235.224 192.504 234.768 192.76C234.507 192.907 234.251 193.063 234.001 193.228C233.687 193.438 233.444 193.737 233.303 194.087C233.163 194.438 233.131 194.822 233.213 195.191C233.295 195.559 233.486 195.894 233.761 196.152C234.037 196.41 234.384 196.579 234.757 196.636L234.795 196.642C234.823 196.646 234.846 196.65 234.874 196.654C234.047 198.628 232.885 200.446 231.441 202.026C230.032 209.63 223.979 210.352 217.504 208.137H217.5C216.789 211.222 215.76 214.225 214.428 217.097H203.457C203.417 216.976 203.382 216.85 203.346 216.728C204.362 216.792 205.382 216.731 206.382 216.547C205.568 215.549 204.754 214.543 203.94 213.545C203.922 213.526 203.905 213.506 203.889 213.486C203.476 212.975 203.059 212.468 202.646 211.957L202.646 211.956C202.624 210.39 202.804 208.828 203.181 207.308L203.182 207.308Z" fill="#69BBEA"/>
<path d="M53.023 122.472C53.7597 116.83 66.7824 117.19 68.012 122.498C68.6643 122.091 70.3235 122.373 70.9423 122.841C71.5611 123.31 71.9577 123.999 72.3461 124.668C72.8762 125.596 73.4257 126.558 73.5431 127.623C73.6655 128.686 73.2475 129.89 72.2832 130.364C71.5182 130.741 69.8349 130.486 68.994 130.317C68.4072 130.201 67.9146 130.099 67.4966 129.998C67.3562 129.338 67.4531 128.649 67.7703 128.052C67.4324 128.12 67.1136 128.26 66.8367 128.465C66.5597 128.67 66.3316 128.933 66.1686 129.237C66.1027 129.364 63.7168 147.311 63.7168 147.311C63.0647 147.389 62.4065 147.406 61.7512 147.36C61.3445 145.151 61.2705 142.894 61.5316 140.663C60.8407 141.938 60.2941 143.286 59.902 144.682C59.6773 145.463 59.4927 146.255 59.3489 147.054C53.6708 145.993 45.9952 142.339 44.5948 136.133C44.6024 136.113 44.6102 136.093 44.618 136.073C44.6945 135.884 44.7027 135.673 44.6411 135.478C44.5795 135.283 44.452 135.116 44.2804 135.004C44.1088 134.893 43.9038 134.845 43.7005 134.868C43.4971 134.891 43.3082 134.984 43.1659 135.131C42.9947 135.307 42.842 135.457 42.7132 135.574C43.2109 131.611 46.2189 128.045 53.023 122.472Z" fill="#2F2E41"/>
<path d="M135.93 260.648L139.113 258.985L134.065 245.65L129.367 248.105L135.93 260.648Z" fill="#EEC9CE"/>
<path d="M148.775 260.488C148.972 260.865 149.011 261.305 148.884 261.711C148.757 262.117 148.473 262.456 148.096 262.654L141.767 265.96L139.498 264.276L140.251 266.751L137.863 268L134.328 259.609L135.134 259.127L138.417 257.15L139.478 256.514L140.669 258.791L147.549 259.639C147.807 259.67 148.053 259.764 148.267 259.912C148.48 260.06 148.655 260.258 148.775 260.488Z" fill="#2F2E41"/>
<path d="M139.191 211.555L141.507 208.811L131.779 198.381L128.362 202.432L139.191 211.555Z" fill="#EEC9CE"/>
<path d="M151.018 206.543C151.343 206.818 151.546 207.21 151.582 207.634C151.619 208.058 151.485 208.479 151.211 208.805L146.607 214.261L143.869 213.561L145.504 215.567L143.768 217.627L137.314 211.2L137.877 210.449L140.167 207.376L140.907 206.386L142.873 208.042L149.561 206.222C149.812 206.153 150.076 206.147 150.329 206.203C150.583 206.259 150.819 206.376 151.018 206.543Z" fill="#2F2E41"/>
<path d="M37.0741 201.271C37.0741 201.271 27.2436 222.298 67.9533 216.632C67.9533 216.632 89.6427 192.612 89.0161 189.722C89.0161 189.722 98.2474 180.348 97.7957 180.177C97.344 180.007 97.0653 179.636 97.8117 179.67C98.5581 179.703 98.5581 178.593 98.5581 178.593C98.5581 178.593 115.241 196.673 129.289 205.644L134.145 200.184C134.145 200.184 132.251 194.263 131.341 194.263C130.43 194.263 130.116 194.482 129.97 193.311C129.823 192.14 130.548 191.134 129.578 191.031C128.609 190.927 108.512 167.455 108.512 167.455C108.512 167.455 106.344 159.724 99.719 161.22C93.0944 162.717 58.671 190.684 58.671 190.684L37.0741 201.271Z" fill="#2F2E41"/>
<path d="M53.6517 217.313L107.434 216.867L130.806 253.874L137.411 250.38L135.947 249.762C135.947 249.762 136.391 244.619 135.848 243.317C135.305 242.014 133.689 242.406 133.689 242.406L120.062 211.003C119.122 208.215 117.276 205.822 114.818 204.205C112.359 202.587 109.43 201.838 106.496 202.078C95.2202 200.434 76.9167 201.747 57.9012 203.36L53.6517 217.313Z" fill="#2F2E41"/>
<path d="M84.7898 154.332C83.7661 154.489 82.844 155.039 82.2198 155.865C81.5955 156.69 81.3184 157.727 81.4473 158.754C81.4768 158.962 81.5234 159.168 81.5869 159.368L70.5359 167.745L72.8164 174.844L86.7134 161.734C87.5255 161.406 88.2064 160.82 88.6497 160.065C89.0931 159.31 89.274 158.43 89.1643 157.562C89.0971 157.069 88.9333 156.594 88.6823 156.163C88.4312 155.733 88.0979 155.357 87.7013 155.055C87.3046 154.754 86.8525 154.534 86.3706 154.407C85.8887 154.28 85.3866 154.249 84.8929 154.317C84.8585 154.321 84.8241 154.326 84.7898 154.332Z" fill="#EEC9CE"/>
<path d="M36.0372 154.855L40.0105 165.848L55.5488 187.791C55.5488 187.791 55.6763 187.736 55.907 187.639C57.2426 187.063 62.0932 184.946 66.6554 182.54C70.9384 180.28 74.9725 177.766 75.5978 176.037C75.6646 175.855 75.7253 175.679 75.7799 175.509V175.506C76.0712 174.625 76.2536 173.713 76.3232 172.788C76.3748 172.075 76.3293 171.693 76.4265 171.647C76.5023 171.614 76.6602 171.778 77.0093 172.148C77.0335 172.172 77.0548 172.196 77.0791 172.218C78.3418 173.483 79.8929 173.319 79.5135 172.718C79.1249 172.102 79.3283 172.115 79.899 171.472C80.3239 170.992 81.7051 169.118 82.385 168.192C82.6187 167.874 82.7675 167.668 82.7675 167.668L82.5337 167.301L81.8872 166.288L78.8123 161.471L78.6423 161.207C78.6423 161.207 72.3226 162.666 71.4818 164.052C70.6379 165.438 72.7536 165.393 70.6379 165.438C68.5222 165.484 66.3641 162.608 67.9091 165.469C69.4541 168.326 69.0474 169.324 67.1351 168.872C66.358 168.687 65.1286 169.272 63.9448 170.031V170.034C63.2046 170.514 62.4902 171.034 61.8048 171.59C61.0733 172.178 60.5785 172.624 60.5785 172.624L48.5765 148.291L47.247 145.597C46.8418 144.778 46.2772 144.047 45.5861 143.448C44.8949 142.849 44.0913 142.394 43.222 142.109L42.8062 142.834C40.217 146.644 37.9527 150.666 36.0372 154.855Z" fill="#D53B3B"/>
<path d="M35.3724 189.744C31.6935 190.6 35.6073 217.361 39.9923 217.445C71.8642 218.051 62.16 200.182 63.869 198.471C65.5779 196.757 67.1199 197.986 65.5779 195.32C64.4548 193.378 62.7883 193.666 62.7641 192.577C62.7519 192.171 62.9674 191.576 63.526 190.6C65.5779 187.008 65.5779 185.938 65.5779 185.938C66.0894 184.859 66.4519 183.716 66.6555 182.54C66.9884 180.792 67.0294 179 66.7769 177.238C66.3915 174.653 65.4231 172.19 63.9448 170.034V170.031C63.7901 169.8 63.6291 169.567 63.4592 169.336C63.0737 168.811 60.9367 168.911 60.9367 168.911L56.3836 149.802L59.0184 142.182L46.5397 136.34L43.222 142.109L42.8062 142.834C40.217 146.645 37.9527 150.666 36.0372 154.855C34.1947 158.953 32.68 163.503 32.6254 167.462C32.4797 177.784 34.2614 180.854 34.2614 180.854C34.2614 180.854 29.936 184.084 32.1002 186.059C34.2614 188.037 39.0514 188.889 35.3724 189.744Z" fill="#D53B3B"/>
<path d="M91.9041 151.818L93.9401 153.363C94.3423 153.671 94.6061 154.125 94.6739 154.626C94.7417 155.128 94.6079 155.635 94.3018 156.038L89.3982 162.479L86.5026 166.279C86.1956 166.68 85.7419 166.944 85.241 167.011C84.74 167.079 84.2327 166.946 83.8301 166.64L81.7917 165.093C81.3912 164.784 81.1287 164.331 81.0614 163.83C80.9941 163.329 81.1274 162.822 81.4324 162.42L81.7328 162.023L87.673 154.223L89.2315 152.179C89.3832 151.98 89.5727 151.812 89.7892 151.686C90.0056 151.56 90.2447 151.478 90.4929 151.445C90.7411 151.411 90.9935 151.427 91.2356 151.491C91.4778 151.555 91.7049 151.666 91.9041 151.818Z" fill="#3F3D56"/>
<path d="M90.8392 151.701L93.0326 153.23C93.226 153.356 93.3904 153.522 93.515 153.717C93.6396 153.912 93.7214 154.13 93.7552 154.359C93.789 154.587 93.774 154.82 93.7111 155.042C93.6482 155.265 93.5389 155.471 93.3903 155.648L90.5195 159.105L88.9896 160.946L87.9689 162.175L85.686 164.923C85.3632 165.292 84.916 165.529 84.4295 165.59C83.943 165.65 83.4512 165.53 83.0478 165.251L81.4043 164.106L80.8575 163.724C80.5849 163.543 80.3721 163.285 80.2458 162.983C80.1195 162.681 80.0854 162.348 80.1477 162.027C80.2026 161.759 80.3234 161.51 80.4991 161.302L87.2446 153.179L88.201 152.029C88.5234 151.66 88.9708 151.422 89.4574 151.362C89.9441 151.301 90.436 151.422 90.8392 151.701Z" fill="white"/>
<path d="M89.4378 160.239C88.4141 160.395 87.492 160.945 86.8677 161.771C86.2434 162.597 85.9663 163.633 86.0952 164.66C86.1247 164.869 86.1714 165.074 86.2348 165.275L75.1838 173.652L77.4643 180.751L91.3613 167.64C92.1735 167.313 92.8543 166.726 93.2977 165.972C93.7411 165.217 93.922 164.337 93.8122 163.469C93.745 162.975 93.5812 162.5 93.3302 162.07C93.0792 161.64 92.7458 161.263 92.3492 160.962C91.9526 160.661 91.5004 160.44 91.0185 160.313C90.5367 160.187 90.0346 160.156 89.5408 160.223C89.5064 160.228 89.4721 160.233 89.4378 160.239Z" fill="#EEC9CE"/>
<path d="M44.3664 147.816C43.4005 148.012 42.4882 148.414 41.6916 148.995C40.895 149.575 40.2328 150.32 39.7501 151.179C39.2674 152.038 38.9754 152.991 38.8941 153.972C38.8127 154.954 38.9439 155.942 39.2787 156.868L44.6571 171.754L60.198 193.699C60.198 193.699 78.8354 185.832 80.2465 181.943C81.6576 178.055 80.3833 176.713 81.6576 178.055C82.9318 179.397 84.5475 179.237 84.1607 178.623C83.7739 178.009 83.9774 178.023 84.547 177.379C85.1165 176.736 87.415 173.575 87.415 173.575L83.2904 167.114C83.2904 167.114 76.9704 168.572 76.1284 169.959C75.2864 171.346 77.4026 171.301 75.2864 171.346C73.1701 171.392 71.0112 168.515 72.5571 171.374C74.1029 174.234 73.6953 175.231 71.7828 174.778C69.8703 174.325 65.2279 178.531 65.2279 178.531L51.8937 151.505C51.223 150.145 50.1208 149.046 48.759 148.379C47.3972 147.711 45.8526 147.513 44.3664 147.816Z" fill="#D53B3B"/>
<path d="M52.3187 138.855C48.4552 134.995 48.4552 128.735 52.3187 124.874C56.1822 121.013 62.4461 121.013 66.3096 124.874C70.1731 128.735 70.1731 134.995 66.3096 138.855C62.4461 142.716 56.1822 142.716 52.3187 138.855Z" fill="#EEC9CE"/>
<path d="M47.7456 121.094C48.4823 115.453 61.505 115.812 62.7346 121.121C63.3869 120.713 65.0461 120.995 65.6649 121.464C66.2837 121.932 66.6803 122.621 67.0687 123.29C67.5988 124.219 71.3084 127.361 71.8642 126.445C73.1152 124.383 75.5683 128.888 73.6855 131.905C73.234 132.628 64.5095 131.467 63.6686 131.298C63.0818 131.182 64.0866 131.398 63.6686 131.298C63.5335 130.644 62.1706 127.263 62.4929 126.675C62.155 126.742 61.8362 126.883 61.5593 127.087C61.2823 127.292 61.0542 127.556 60.8912 127.859C60.8253 127.986 58.4394 145.933 58.4394 145.933C57.7872 146.012 57.1291 146.028 56.4738 145.982C56.0671 143.773 55.9931 141.516 56.2542 139.286C55.5633 140.561 55.0167 141.908 54.6245 143.304C54.3999 144.085 54.2153 144.877 54.0715 145.677C48.3934 144.616 40.7178 140.961 39.3173 134.755C46.9738 132.208 40.9415 126.667 47.7456 121.094Z" fill="#2F2E41"/>
<path opacity="0.3" d="M134.341 149.446C134.214 148.574 135.128 147.72 136.381 147.538C137.635 147.355 138.754 147.914 138.881 148.786C139.008 149.657 138.094 150.511 136.841 150.694C135.587 150.876 134.468 150.317 134.341 149.446Z" fill="#E6E6E6"/>
<path opacity="0.3" d="M119.415 147.99C119.289 147.119 120.202 146.265 121.456 146.082C122.709 145.9 123.828 146.459 123.955 147.33C124.082 148.202 123.169 149.056 121.915 149.238C120.661 149.421 119.542 148.862 119.415 147.99Z" fill="#3F3D56"/>
<path opacity="0.3" d="M138.428 137.371C138.301 136.499 139.215 135.645 140.468 135.463C141.722 135.28 142.841 135.839 142.968 136.711C143.095 137.582 142.181 138.436 140.928 138.619C139.674 138.801 138.555 138.242 138.428 137.371Z" fill="#FF6584"/>
<path opacity="0.3" d="M144.914 132.425C144.908 131.624 145.354 130.972 145.911 130.968C146.468 130.964 146.925 131.609 146.931 132.409C146.937 133.209 146.49 133.861 145.933 133.866C145.376 133.87 144.92 133.225 144.914 132.425Z" fill="#E6E6E6"/>
<path opacity="0.3" d="M147.113 123.212C147.107 122.412 147.554 121.76 148.111 121.756C148.668 121.751 149.124 122.397 149.13 123.197C149.136 123.997 148.69 124.649 148.133 124.653C147.576 124.657 147.119 124.012 147.113 123.212Z" fill="#3F3D56"/>
<path opacity="0.3" d="M130.01 139.426C130.004 138.625 130.451 137.973 131.007 137.969C131.564 137.965 132.021 138.61 132.027 139.41C132.033 140.21 131.586 140.862 131.029 140.867C130.472 140.871 130.016 140.226 130.01 139.426Z" fill="#E6E6E6"/>
<path opacity="0.3" d="M137.223 143.024C137.217 142.224 137.663 141.572 138.22 141.568C138.777 141.564 139.233 142.209 139.24 143.009C139.246 143.809 138.799 144.461 138.242 144.465C137.685 144.469 137.229 143.824 137.223 143.024Z" fill="#FF6584"/>
<path opacity="0.3" d="M127.182 149.676C127.176 148.875 127.623 148.223 128.18 148.219C128.737 148.215 129.193 148.86 129.199 149.66C129.205 150.46 128.759 151.112 128.202 151.117C127.645 151.121 127.188 150.476 127.182 149.676Z" fill="#3F3D56"/>
<path d="M92.7259 158.183C92.5895 158.085 92.6766 157.73 92.9203 157.389C93.164 157.049 93.4722 156.851 93.6085 156.949C93.7449 157.046 93.6579 157.401 93.4142 157.742C93.1704 158.083 92.8623 158.28 92.7259 158.183Z" fill="#3F3D56"/>
<path d="M93.6366 156.969C93.5002 156.872 93.5872 156.517 93.8309 156.176C94.0747 155.835 94.3828 155.638 94.5192 155.735C94.6556 155.833 94.5685 156.188 94.3248 156.529C94.0811 156.869 93.7729 157.067 93.6366 156.969Z" fill="#3F3D56"/>
</g>
<defs>
<clipPath id="clip0_893_15">
<rect width="223" height="217" fill="white" transform="translate(211)"/>
</clipPath>
<clipPath id="clip1_893_15">
<rect width="257" height="151" fill="white" transform="matrix(-1 0 0 1 257 117)"/>
</clipPath>
</defs>
</svg>
