<svg width="578" height="578" viewBox="0 0 578 578" fill="none" xmlns="http://www.w3.org/2000/svg">
<path d="M340.452 58.0797C343.538 57.1775 346.871 57.9902 349.196 60.2119L514.46 218.165C516.784 220.387 517.747 223.68 516.985 226.804L462.826 448.903C462.064 452.027 459.693 454.507 456.607 455.409L237.183 519.556C234.097 520.458 230.764 519.645 228.44 517.423L63.1756 359.47C60.8512 357.248 59.8885 353.955 60.6503 350.832L114.81 128.732C115.572 125.608 117.942 123.128 121.028 122.226L340.452 58.0797Z" fill="#EDF7E9"/>
<path d="M419.856 130.172C421.928 127.713 425.154 126.546 428.32 127.111L447.614 130.555C450.779 131.12 453.402 133.331 454.496 136.355L461.16 154.786C462.254 157.81 461.651 161.187 459.579 163.646L446.949 178.633C444.877 181.092 441.651 182.259 438.485 181.694L419.191 178.25C416.026 177.685 413.402 175.474 412.309 172.45L405.645 154.019C404.551 150.995 405.154 147.618 407.226 145.159L419.856 130.172Z" fill="#B5DFA6"/>
<path d="M232.91 213.987C236.122 213.832 239.172 215.402 240.912 218.106L263.96 253.926C265.7 256.63 265.866 260.057 264.394 262.915L244.897 300.786C243.426 303.645 240.541 305.501 237.329 305.656L194.784 307.707C191.572 307.862 188.522 306.291 186.782 303.588L163.733 267.768C161.993 265.064 161.828 261.637 163.3 258.778L182.796 220.908C184.268 218.049 187.153 216.192 190.365 216.038L232.91 213.987Z" fill="#B5DFA6"/>
<path d="M250.757 74.9897C251.8 74.7441 252.895 75.0738 253.629 75.8545L262.173 84.9373C262.907 85.718 263.169 86.8311 262.86 87.8574L259.266 99.7975C258.957 100.824 258.124 101.607 257.081 101.853L244.943 104.71C243.9 104.956 242.805 104.626 242.07 103.845L233.527 94.7627C232.793 93.982 232.531 92.8688 232.84 91.8425L236.434 79.9024C236.743 78.8761 237.576 78.0926 238.619 77.847L250.757 74.9897Z" fill="#B5DFA6"/>
<path d="M341.757 177.99C342.8 177.744 343.895 178.074 344.629 178.854L353.173 187.937C353.907 188.718 354.169 189.831 353.86 190.857L350.266 202.798C349.957 203.824 349.124 204.607 348.081 204.853L335.943 207.71C334.9 207.956 333.805 207.626 333.07 206.845L324.527 197.763C323.793 196.982 323.531 195.869 323.84 194.843L327.434 182.902C327.743 181.876 328.576 181.093 329.619 180.847L341.757 177.99Z" fill="#B5DFA6"/>
<path d="M279.343 98.5353C279.844 98.0253 280.578 97.821 281.27 97.9994L285.217 99.017C285.909 99.1954 286.453 99.7294 286.645 100.418L287.737 104.345C287.929 105.033 287.738 105.772 287.238 106.282L284.383 109.191C283.882 109.701 283.148 109.905 282.456 109.727L278.509 108.709C277.817 108.531 277.273 107.997 277.081 107.308L275.989 103.381C275.798 102.693 275.988 101.955 276.488 101.445L279.343 98.5353Z" fill="#B5DFA6"/>
</svg>
