<svg width="152" height="27" viewBox="0 0 152 27" fill="none" xmlns="http://www.w3.org/2000/svg">
<path d="M80.7402 2C80.7402 0.895431 81.6506 0 82.7551 0C110.621 0 114.753 0 143.139 0C143.815 0 144.463 0.34135 144.832 0.907464L151.415 11.002C151.627 11.327 151.74 11.7066 151.74 12.0945V25C151.74 26.1046 150.845 27 149.74 27H82.7402C81.6357 27 80.7402 26.1046 80.7402 25V2Z" fill="url(#paint0_linear_330_1726)"/>
<path d="M95.6162 7.4C96.7082 7.4 97.6562 7.58 98.4602 7.94C99.2762 8.3 99.9002 8.816 100.332 9.488C100.764 10.16 100.98 10.958 100.98 11.882C100.98 12.794 100.764 13.592 100.332 14.276C99.9002 14.948 99.2762 15.464 98.4602 15.824C97.6562 16.184 96.7082 16.364 95.6162 16.364H92.7722V20H90.4322V7.4H95.6162ZM95.5082 14.384C96.5282 14.384 97.3022 14.168 97.8302 13.736C98.3582 13.304 98.6222 12.686 98.6222 11.882C98.6222 11.078 98.3582 10.46 97.8302 10.028C97.3022 9.596 96.5282 9.38 95.5082 9.38H92.7722V14.384H95.5082ZM109.379 20.18C108.095 20.18 106.937 19.904 105.905 19.352C104.873 18.788 104.063 18.014 103.475 17.03C102.887 16.034 102.593 14.924 102.593 13.7C102.593 12.476 102.887 11.372 103.475 10.388C104.063 9.392 104.873 8.618 105.905 8.066C106.937 7.502 108.095 7.22 109.379 7.22C110.663 7.22 111.821 7.502 112.853 8.066C113.885 8.618 114.695 9.386 115.283 10.37C115.871 11.354 116.165 12.464 116.165 13.7C116.165 14.936 115.871 16.046 115.283 17.03C114.695 18.014 113.885 18.788 112.853 19.352C111.821 19.904 110.663 20.18 109.379 20.18ZM109.379 18.128C110.219 18.128 110.975 17.942 111.647 17.57C112.319 17.186 112.847 16.658 113.231 15.986C113.615 15.302 113.807 14.54 113.807 13.7C113.807 12.86 113.615 12.104 113.231 11.432C112.847 10.748 112.319 10.22 111.647 9.848C110.975 9.464 110.219 9.272 109.379 9.272C108.539 9.272 107.783 9.464 107.111 9.848C106.439 10.22 105.911 10.748 105.527 11.432C105.143 12.104 104.951 12.86 104.951 13.7C104.951 14.54 105.143 15.302 105.527 15.986C105.911 16.658 106.439 17.186 107.111 17.57C107.783 17.942 108.539 18.128 109.379 18.128ZM124.531 20.18C123.247 20.18 122.089 19.904 121.057 19.352C120.025 18.788 119.215 18.014 118.627 17.03C118.039 16.034 117.745 14.924 117.745 13.7C117.745 12.476 118.039 11.372 118.627 10.388C119.215 9.392 120.025 8.618 121.057 8.066C122.089 7.502 123.247 7.22 124.531 7.22C125.815 7.22 126.973 7.502 128.005 8.066C129.037 8.618 129.847 9.386 130.435 10.37C131.023 11.354 131.317 12.464 131.317 13.7C131.317 14.936 131.023 16.046 130.435 17.03C129.847 18.014 129.037 18.788 128.005 19.352C126.973 19.904 125.815 20.18 124.531 20.18ZM124.531 18.128C125.371 18.128 126.127 17.942 126.799 17.57C127.471 17.186 127.999 16.658 128.383 15.986C128.767 15.302 128.959 14.54 128.959 13.7C128.959 12.86 128.767 12.104 128.383 11.432C127.999 10.748 127.471 10.22 126.799 9.848C126.127 9.464 125.371 9.272 124.531 9.272C123.691 9.272 122.935 9.464 122.263 9.848C121.591 10.22 121.063 10.748 120.679 11.432C120.295 12.104 120.103 12.86 120.103 13.7C120.103 14.54 120.295 15.302 120.679 15.986C121.063 16.658 121.591 17.186 122.263 17.57C122.935 17.942 123.691 18.128 124.531 18.128ZM133.797 7.4H136.137V18.02H142.725V20H133.797V7.4Z" fill="white"/>
<path d="M22.572 20.3479V25.9999H0V21.5359L12.708 6.4519H0.324V0.799898H22.032V5.2639L9.324 20.3479H22.572Z" fill="#114E13"/>
<path d="M41.254 25.9999L36.034 18.1879L30.886 25.9999H22.75L31.93 13.2559L23.146 0.799898H31.174L36.214 8.0719L41.182 0.799898H48.886L40.102 12.9679L49.462 25.9999H41.254Z" fill="#114E13"/>
<path d="M62.404 26.5039C59.764 26.5039 57.388 25.9519 55.276 24.8479C53.188 23.7199 51.544 22.1599 50.344 20.1679C49.144 18.1759 48.544 15.9199 48.544 13.3999C48.544 10.8799 49.144 8.6239 50.344 6.6319C51.544 4.6399 53.188 3.0919 55.276 1.9879C57.388 0.859898 59.764 0.295898 62.404 0.295898C64.708 0.295898 66.784 0.703898 68.632 1.5199C70.48 2.3359 72.016 3.5119 73.24 5.0479L68.704 9.1519C67.072 7.1839 65.092 6.1999 62.764 6.1999C61.396 6.1999 60.172 6.4999 59.092 7.0999C58.036 7.6999 57.208 8.5519 56.608 9.6559C56.032 10.7359 55.744 11.9839 55.744 13.3999C55.744 14.8159 56.032 16.0759 56.608 17.1799C57.208 18.2599 58.036 19.0999 59.092 19.6999C60.172 20.2999 61.396 20.5999 62.764 20.5999C65.092 20.5999 67.072 19.6159 68.704 17.6479L73.24 21.7519C72.016 23.2879 70.48 24.4639 68.632 25.2799C66.784 26.0959 64.708 26.5039 62.404 26.5039Z" fill="#114E13"/>
<mask id="mask0_330_1726" style="mask-type:alpha" maskUnits="userSpaceOnUse" x="0" y="0" width="74" height="27">
<path d="M22.572 20.3479V25.9999H0V21.5359L12.708 6.4519H0.324V0.799898H22.032V5.2639L9.324 20.3479H22.572Z" fill="#0D2B00"/>
<path d="M41.254 25.9999L36.034 18.1879L30.886 25.9999H22.75L31.93 13.2559L23.146 0.799898H31.174L36.214 8.0719L41.182 0.799898H48.886L40.102 12.9679L49.462 25.9999H41.254Z" fill="#0D2B00"/>
<path d="M62.404 26.5039C59.764 26.5039 57.388 25.9519 55.276 24.8479C53.188 23.7199 51.544 22.1599 50.344 20.1679C49.144 18.1759 48.544 15.9199 48.544 13.3999C48.544 10.8799 49.144 8.6239 50.344 6.6319C51.544 4.6399 53.188 3.0919 55.276 1.9879C57.388 0.859898 59.764 0.295898 62.404 0.295898C64.708 0.295898 66.784 0.703898 68.632 1.5199C70.48 2.3359 72.016 3.5119 73.24 5.0479L68.704 9.1519C67.072 7.1839 65.092 6.1999 62.764 6.1999C61.396 6.1999 60.172 6.4999 59.092 7.0999C58.036 7.6999 57.208 8.5519 56.608 9.6559C56.032 10.7359 55.744 11.9839 55.744 13.3999C55.744 14.8159 56.032 16.0759 56.608 17.1799C57.208 18.2599 58.036 19.0999 59.092 19.6999C60.172 20.2999 61.396 20.5999 62.764 20.5999C65.092 20.5999 67.072 19.6159 68.704 17.6479L73.24 21.7519C72.016 23.2879 70.48 24.4639 68.632 25.2799C66.784 26.0959 64.708 26.5039 62.404 26.5039Z" fill="#0D2B00"/>
</mask>
<g mask="url(#mask0_330_1726)">
<g filter="url(#filter0_f_330_1726)">
<circle cx="35.7402" cy="36" r="16" fill="#64CE34"/>
</g>
</g>
<defs>
<filter id="filter0_f_330_1726" x="5.74023" y="6" width="60" height="60" filterUnits="userSpaceOnUse" color-interpolation-filters="sRGB">
<feFlood flood-opacity="0" result="BackgroundImageFix"/>
<feBlend mode="normal" in="SourceGraphic" in2="BackgroundImageFix" result="shape"/>
<feGaussianBlur stdDeviation="7" result="effect1_foregroundBlur_330_1726"/>
</filter>
<linearGradient id="paint0_linear_330_1726" x1="72.7925" y1="-4.0909" x2="154.949" y2="-8.24082" gradientUnits="userSpaceOnUse">
<stop stop-color="#6ABD36"/>
<stop offset="1" stop-color="#058E34"/>
</linearGradient>
</defs>
</svg>
