<svg width="347" height="53" fill="none" xmlns="http://www.w3.org/2000/svg"><path d="M0 4a4 4 0 014-4h321.185a4 4 0 012.817 1.16l17.815 17.666a4.001 4.001 0 011.183 2.84V49a4 4 0 01-4 4H4a4 4 0 01-4-4V4z" fill="url(#paint0_linear_330_2002)"/><mask id="mask0_330_2002" style="mask-type:alpha" maskUnits="userSpaceOnUse" x="0" y="0" width="347" height="53"><path d="M0 4a4 4 0 014-4h321.185a4 4 0 012.817 1.16l17.815 17.666a4.001 4.001 0 011.183 2.84V49a4 4 0 01-4 4H4a4 4 0 01-4-4V4z" fill="url(#paint1_linear_330_2002)"/></mask><g mask="url(#mask0_330_2002)"><circle cx="323" cy="56" r="59" fill="#2EA3E6"/></g><defs><linearGradient id="paint0_linear_330_2002" x1="-38.843" y1="-8.03" x2="357.437" y2="-57.868" gradientUnits="userSpaceOnUse"><stop stop-color="#6ABD36"/><stop offset="1" stop-color="#058E34"/></linearGradient><linearGradient id="paint1_linear_330_2002" x1="-38.843" y1="-8.03" x2="357.437" y2="-57.868" gradientUnits="userSpaceOnUse"><stop stop-color="#6ABD36"/><stop offset="1" stop-color="#058E34"/></linearGradient></defs></svg>