<svg width="152" height="27" fill="none" xmlns="http://www.w3.org/2000/svg"><path d="M80.74 2c0-1.105.91-2 2.015-2h60.384a2.03 2.03 0 011.693.907l6.583 10.095a2 2 0 01.325 1.092V25a2 2 0 01-2 2h-67a2 2 0 01-2-2V2z" fill="url(#paint0_linear_330_1726)"/><path d="M95.616 7.4c1.092 0 2.04.18 2.844.54.816.36 1.44.876 1.872 1.548.432.672.648 1.47.648 2.394 0 .912-.216 1.71-.648 2.394-.432.672-1.056 1.188-1.872 1.548-.804.36-1.752.54-2.844.54h-2.844V20h-2.34V7.4h5.184zm-.108 6.984c1.02 0 1.794-.216 2.322-.648.528-.432.792-1.05.792-1.854s-.264-1.422-.792-1.854c-.528-.432-1.302-.648-2.322-.648h-2.736v5.004h2.736zm13.871 5.796c-1.284 0-2.442-.276-3.474-.828a6.283 6.283 0 01-2.43-2.322c-.588-.996-.882-2.106-.882-3.33 0-1.224.294-2.328.882-3.312a6.116 6.116 0 012.43-2.322c1.032-.564 2.19-.846 3.474-.846 1.284 0 2.442.282 3.474.846a6.154 6.154 0 012.43 2.304c.588.984.882 2.094.882 3.33 0 1.236-.294 2.346-.882 3.33a6.283 6.283 0 01-2.43 2.322c-1.032.552-2.19.828-3.474.828zm0-2.052c.84 0 1.596-.186 2.268-.558a4.183 4.183 0 001.584-1.584c.384-.684.576-1.446.576-2.286 0-.84-.192-1.596-.576-2.268a4.022 4.022 0 00-1.584-1.584c-.672-.384-1.428-.576-2.268-.576-.84 0-1.596.192-2.268.576-.672.372-1.2.9-1.584 1.584-.384.672-.576 1.428-.576 2.268 0 .84.192 1.602.576 2.286.384.672.912 1.2 1.584 1.584.672.372 1.428.558 2.268.558zm15.152 2.052c-1.284 0-2.442-.276-3.474-.828a6.283 6.283 0 01-2.43-2.322c-.588-.996-.882-2.106-.882-3.33 0-1.224.294-2.328.882-3.312a6.116 6.116 0 012.43-2.322c1.032-.564 2.19-.846 3.474-.846 1.284 0 2.442.282 3.474.846a6.154 6.154 0 012.43 2.304c.588.984.882 2.094.882 3.33 0 1.236-.294 2.346-.882 3.33a6.283 6.283 0 01-2.43 2.322c-1.032.552-2.19.828-3.474.828zm0-2.052c.84 0 1.596-.186 2.268-.558a4.183 4.183 0 001.584-1.584c.384-.684.576-1.446.576-2.286 0-.84-.192-1.596-.576-2.268a4.022 4.022 0 00-1.584-1.584c-.672-.384-1.428-.576-2.268-.576-.84 0-1.596.192-2.268.576-.672.372-1.2.9-1.584 1.584-.384.672-.576 1.428-.576 2.268 0 .84.192 1.602.576 2.286.384.672.912 1.2 1.584 1.584.672.372 1.428.558 2.268.558zM133.797 7.4h2.34v10.62h6.588V20h-8.928V7.4z" fill="#fff"/><path d="M22.572 20.348V26H0v-4.464L12.708 6.452H.324V.8h21.708v4.464L9.324 20.348h13.248zM41.254 26l-5.22-7.812L30.886 26H22.75l9.18-12.744L23.146.8h8.028l5.04 7.272L41.182.8h7.704l-8.784 12.168L49.462 26h-8.208z" fill="#114E13"/><path d="M62.404 26.504c-2.64 0-5.016-.552-7.128-1.656-2.088-1.128-3.732-2.688-4.932-4.68-1.2-1.992-1.8-4.248-1.8-6.768 0-2.52.6-4.776 1.8-6.768 1.2-1.992 2.844-3.54 4.932-4.644C57.388.86 59.764.296 62.404.296c2.304 0 4.38.408 6.228 1.224 1.848.816 3.384 1.992 4.608 3.528l-4.536 4.104C67.072 7.184 65.092 6.2 62.764 6.2c-1.368 0-2.592.3-3.672.9-1.056.6-1.884 1.452-2.484 2.556-.576 1.08-.864 2.328-.864 3.744 0 1.416.288 2.676.864 3.78a6.431 6.431 0 002.484 2.52c1.08.6 2.304.9 3.672.9 2.328 0 4.308-.984 5.94-2.952l4.536 4.104c-1.224 1.536-2.76 2.712-4.608 3.528-1.848.816-3.924 1.224-6.228 1.224z" fill="#114E13"/><mask id="mask0_330_1726" style="mask-type:alpha" maskUnits="userSpaceOnUse" x="0" y="0" width="74" height="27"><path d="M22.572 20.348V26H0v-4.464L12.708 6.452H.324V.8h21.708v4.464L9.324 20.348h13.248zM41.254 26l-5.22-7.812L30.886 26H22.75l9.18-12.744L23.146.8h8.028l5.04 7.272L41.182.8h7.704l-8.784 12.168L49.462 26h-8.208z" fill="#0D2B00"/><path d="M62.404 26.504c-2.64 0-5.016-.552-7.128-1.656-2.088-1.128-3.732-2.688-4.932-4.68-1.2-1.992-1.8-4.248-1.8-6.768 0-2.52.6-4.776 1.8-6.768 1.2-1.992 2.844-3.54 4.932-4.644C57.388.86 59.764.296 62.404.296c2.304 0 4.38.408 6.228 1.224 1.848.816 3.384 1.992 4.608 3.528l-4.536 4.104C67.072 7.184 65.092 6.2 62.764 6.2c-1.368 0-2.592.3-3.672.9-1.056.6-1.884 1.452-2.484 2.556-.576 1.08-.864 2.328-.864 3.744 0 1.416.288 2.676.864 3.78a6.431 6.431 0 002.484 2.52c1.08.6 2.304.9 3.672.9 2.328 0 4.308-.984 5.94-2.952l4.536 4.104c-1.224 1.536-2.76 2.712-4.608 3.528-1.848.816-3.924 1.224-6.228 1.224z" fill="#0D2B00"/></mask><g filter="url(#filter0_f_330_1726)" mask="url(#mask0_330_1726)"><circle cx="35.74" cy="36" r="16" fill="#64CE34"/></g><defs><linearGradient id="paint0_linear_330_1726" x1="72.793" y1="-4.091" x2="154.949" y2="-8.241" gradientUnits="userSpaceOnUse"><stop stop-color="#6ABD36"/><stop offset="1" stop-color="#058E34"/></linearGradient><filter id="filter0_f_330_1726" x="5.74" y="6" width="60" height="60" filterUnits="userSpaceOnUse" color-interpolation-filters="sRGB"><feFlood flood-opacity="0" result="BackgroundImageFix"/><feBlend in="SourceGraphic" in2="BackgroundImageFix" result="shape"/><feGaussianBlur stdDeviation="7" result="effect1_foregroundBlur_330_1726"/></filter></defs></svg>