<svg width="162" height="46" viewBox="0 0 162 46" xmlns="http://www.w3.org/2000/svg">
<path d="M0.5 4C0.5 2.072 2.09292 0.5 4.03094 0.5H4.39485H4.75777H5.11969H5.48062H5.84056H6.19951H6.55749H6.9145H7.27053H7.62559H7.97969H8.33283H8.68502H9.03625H9.38653H9.73588H10.0843H10.4317H10.7783H11.1239H11.4686H11.8123H12.1552H12.4971H12.8381H13.1782H13.5175H13.8558H14.1932H14.5298H14.8654H15.2002H15.5341H15.8671H16.1993H16.5306H16.861H17.1906H17.5193H17.8472H18.1742H18.5004H18.8258H19.1503H19.474H19.7969H20.1189H20.4401H20.7606H21.0802H21.399H21.717H22.0342H22.3506H22.6662H22.981H23.2951H23.6084H23.9209H24.2326H24.5436H24.8538H25.1632H25.4719H25.7799H26.0871H26.3935H26.6992H27.0042H27.3085H27.612H27.9148H28.2169H28.5183H28.8189H29.1189H29.4181H29.7167H30.0146H30.3117H30.6082H30.904H31.1991H31.4936H31.7874H32.0805H32.3729H32.6647H32.9559H33.2463H33.5362H33.8254H34.1139H34.4019H34.6891H34.9758H35.2618H35.5473H35.8321H36.1163H36.3999H36.6828H36.9652H37.247H37.5282H37.8088H38.0888H38.3683H38.6472H38.9255H39.2032H39.4804H39.757H40.033H40.3085H40.5835H40.8579H41.1318H41.4051H41.6779H41.9502H42.2219H42.4931H42.7639H43.0341H43.3037H43.5729H43.8416H44.1098H44.3775H44.6447H44.9114H45.1777H45.4435H45.7088H45.9736H46.2379H46.5018H46.7653H47.0283H47.2908H47.5529H47.8146H48.0758H48.3366H48.5969H48.8569H49.1164H49.3755H49.6342H49.8924H50.1503H50.4078H50.6648H50.9215H51.1778H51.4337H51.6892H51.9443H52.1991H52.4535H52.7075H52.9612H53.2145H53.4675H53.7201H53.9723H54.2242H54.4758H54.7271H54.978H55.2286H55.4788H55.7288H55.9784H56.2277H56.4768H56.7255H56.9739H57.222H57.4699H57.7174H57.9647H58.2116H58.4584H58.7048H58.951H59.1969H59.4425H59.6879H59.9331H60.178H60.4226H60.667H60.9112H61.1552H61.3989H61.6424H61.8857H62.1287H62.3716H62.6142H62.8567H63.0989H63.341H63.5828H63.8245H64.066H64.3073H64.5484H64.7894H65.0302H65.2708H65.5112H65.7515H65.9917H66.2317H66.4716H66.7113H66.9509H67.1904H67.4297H67.6689H67.908H68.1469H68.3858H68.6245H68.8632H69.1017H69.3402H69.5785H69.8168H70.055H70.2931H70.5311H70.7691H71.0069H71.2447H71.4825H71.7202H71.9578H72.1954H72.433H72.6705H72.908H73.1454H73.3828H73.6202H73.8576H74.0949H74.3323H74.5696H74.8069H75.0442H75.2815H75.5189H75.7562H75.9935H76.2309H76.4683H76.7057H76.9432H77.1807H77.4182H77.6557H77.8933H78.131H78.3687H78.6065H78.8443H79.0822H79.3202H79.5582H79.7963H80.0345H80.2728H80.5112H80.7497H80.9882H81.2269H81.4657H81.7046H81.9436H82.1827H82.4219H82.6613H82.9007H83.1404H83.3801H83.62H83.8601H84.1003H84.3406H84.5811H84.8218H85.0626H85.3036H85.5448H85.7861H86.0276H86.2694H86.5113H86.7533H86.9956H87.2381H87.4808H87.7237H87.9668H88.2102H88.4537H88.6975H88.9415H89.1857H89.4302H89.6749H89.9199H90.1651H90.4105H90.6562H90.9022H91.1485H91.395H91.6417H91.8888H92.1361H92.3837H92.6316H92.8798H93.1283H93.3771H93.6262H93.8756H94.1253H94.3753H94.6257H94.8763H95.1273H95.3786H95.6303H95.8823H96.1347H96.3873H96.6404H96.8938H97.1475H97.4016H97.6561H97.911H98.1662H98.4218H98.6778H98.9342H99.1909H99.4481H99.7057H99.9636H100.222H100.481H100.74H101H101.26H101.52H101.781H102.042H102.304H102.566H102.829H103.092H103.356H103.62H103.884H104.149H104.414H104.68H104.947H105.213H105.481H105.749H106.017H106.286H106.555H106.825H107.095H107.366H107.637H107.909H108.182H108.455H108.728H109.002H109.277H109.552H109.827H110.103H110.38H110.657H110.935H111.214H111.493H111.772H112.053H112.333H112.615H112.897H113.179H113.462H113.746H114.03H114.315H114.601H114.887H115.174H115.461H115.749H116.038H116.327H116.617H116.908H117.199H117.491H117.784H118.077H118.371H118.666H118.961H119.257H119.554H119.851H120.149H120.448H120.747H121.047H121.348H121.65H121.952H122.255H122.558H122.863H123.168H123.474H123.781H124.088H124.396H124.705H125.015H125.325H125.636H125.948H126.261H126.574H126.888H127.203H127.519H127.836H128.153H128.471H128.79H129.11H129.431H129.752H130.074H130.398H130.721H131.046H131.372H131.698H132.025H132.353H132.682H133.012H133.343H133.674H134.007H134.34H134.674H135.009H135.345H135.682H136.019H136.358H136.697H137.038H137.379H137.721H138.064H138.408H138.753H139.099H139.445H139.793H140.142H140.491H140.842H141.193H141.546H141.899H142.253H142.609H142.965H143.322H143.68H144.04H144.4H144.761H145.123H145.486H145.85H146.216H146.582H146.949H147.317H147.686C148.83 0.5 149.928 1.05817 150.581 1.98688L160.863 16.6109C161.278 17.2003 161.5 17.9034 161.5 18.624V42C161.5 43.933 159.933 45.5 158 45.5H4C2.067 45.5 0.5 43.933 0.5 42V4Z"/>
</svg>
