<svg width="12" height="8" viewBox="0 0 12 8" xmlns="http://www.w3.org/2000/svg">
<path d="M5.625 2.0625C5.41016 2.08203 5.19531 2.10156 5 2.16016C5.09766 2.31641 5.13672 2.51172 5.15625 2.6875C5.15625 3.29297 4.64844 3.78125 4.0625 3.78125C3.86719 3.78125 3.67188 3.74219 3.53516 3.64453C3.47656 3.83984 3.4375 4.03516 3.4375 4.25C3.4375 5.46094 4.41406 6.4375 5.625 6.4375C6.83594 6.4375 7.8125 5.46094 7.8125 4.25C7.8125 3.05859 6.83594 2.08203 5.625 2.08203V2.0625ZM11.1719 3.97656C10.1172 1.90625 8.00781 0.5 5.625 0.5C3.22266 0.5 1.11328 1.90625 0.0585938 3.97656C0.0195312 4.05469 0 4.15234 0 4.25C0 4.36719 0.0195312 4.46484 0.0585938 4.54297C1.11328 6.61328 3.22266 8 5.625 8C8.00781 8 10.1172 6.61328 11.1719 4.54297C11.2109 4.46484 11.2305 4.36719 11.2305 4.26953C11.2305 4.15234 11.2109 4.05469 11.1719 3.97656ZM5.625 7.0625C3.69141 7.0625 1.91406 5.98828 0.976562 4.25C1.91406 2.51172 3.69141 1.4375 5.625 1.4375C7.53906 1.4375 9.31641 2.51172 10.2539 4.25C9.31641 5.98828 7.53906 7.0625 5.625 7.0625Z"/>
</svg>
