<svg width="43" height="49" viewBox="0 0 43 49" fill="none" xmlns="http://www.w3.org/2000/svg">
<path d="M11.21 36.33L6 33.36V27.36" stroke="#57B536" stroke-width="2"/>
<path d="M6 22.33V16.33L11.21 13.36" stroke="#57B536" stroke-width="2"/>
<path d="M15.82 10.73L21.04 7.76001L26.25 10.73" stroke="#57B536" stroke-width="2"/>
<path d="M30.86 13.36L36.07 16.33V22.33" stroke="#57B536" stroke-width="2"/>
<path d="M36.07 27.36V33.36L30.86 36.33" stroke="#57B536" stroke-width="2"/>
<path d="M26.25 38.96L21.04 41.94L15.82 38.96" stroke="#57B536" stroke-width="2"/>
<path d="M18.09 24H23.09C25.02 24 26.59 25.57 26.59 27.5C26.59 29.43 25.02 31 23.09 31H16.09" stroke="#57B536" stroke-width="2"/>
<path d="M18.09 15V34" stroke="#57B536" stroke-width="2"/>
<path d="M21.09 15V18" stroke="#57B536" stroke-width="2"/>
<path d="M21.09 34V31" stroke="#57B536" stroke-width="2"/>
<path d="M17.09 24H23.09C24.75 24 26.09 22.66 26.09 21C26.09 19.34 24.75 18 23.09 18H16.09" stroke="#57B536" stroke-width="2"/>
<path d="M1 13.42L21.04 2L41.07 13.42V36.27L21.04 47.69L1 36.27V13.42Z" stroke="#57B536" stroke-width="2"/>
<path d="M29.1 20.1L41.07 13.27" stroke="#57B536" stroke-width="2"/>
<path d="M1 13.27L12.98 20.1" stroke="#57B536" stroke-width="2"/>
<path d="M21.09 48V36" stroke="#57B536" stroke-width="2"/>
</svg>
