<svg width="58" height="63" viewBox="0 0 58 63" fill="none" xmlns="http://www.w3.org/2000/svg">
<path d="M20.187 8.45135C20.6475 7.90496 21.3644 7.64572 22.0679 7.77128L41.7055 11.2766C42.4089 11.4022 42.9919 11.8935 43.2348 12.5654L50.0179 31.3248C50.2609 31.9967 50.1269 32.7473 49.6665 33.2937L36.8119 48.5476C36.3515 49.094 35.6345 49.3533 34.9311 49.2277L15.2935 45.7224C14.5901 45.5968 14.0071 45.1055 13.7641 44.4336L6.98106 25.6742C6.73809 25.0023 6.87206 24.2517 7.33251 23.7053L20.187 8.45135Z" fill="#E83232"/>
<path fill-rule="evenodd" clip-rule="evenodd" d="M29.5976 14.0831C26.9668 14.49 24.5844 15.9864 23.1085 18.1589C22.6165 18.883 5.38766 48.4947 4.95081 49.3671C3.45957 52.3445 3.7395 56.0394 5.67065 58.8676C6.97189 60.7733 8.9601 62.1584 11.2635 62.7638L12.1617 62.9999H30.8656C50.9205 62.9999 50.0998 63.0208 51.6557 62.4705C53.0764 61.968 54.0658 61.3435 55.1571 60.2604C56.0252 59.399 56.5718 58.6244 57.1311 57.4635C57.8056 56.0631 58 55.1667 58 53.4569C58 51.7509 57.8055 50.8505 57.1372 49.4629C56.7451 48.6491 40.1796 20.0893 39.1743 18.4941C38.1653 16.8931 36.2814 15.2783 34.7591 14.7097C33.1453 14.107 31.0712 13.8551 29.5976 14.0831ZM31.8695 18.384C33.1366 18.5845 34.4015 19.324 35.1268 20.2884C35.5961 20.9124 52.7629 50.38 53.2278 51.3595C53.9503 52.8819 53.7835 54.8082 52.797 56.3338C51.9945 57.5749 50.5749 58.4509 49.0412 58.6513C48.4695 58.7261 42.4482 58.7519 30.4429 58.731L12.6901 58.7003L11.9779 58.4605C9.0682 57.4806 7.55773 54.1976 8.76767 51.4827C8.98039 51.0052 25.9168 21.8243 26.6694 20.6385C27.5086 19.316 29.2364 18.3598 30.9185 18.2867C31.0638 18.2804 31.4917 18.3242 31.8695 18.384ZM30.3513 29.129C29.4609 29.3534 28.7829 29.9828 28.3762 30.9627C28.1767 31.4433 28.188 32.1133 28.475 36.7829C28.6063 38.917 28.7742 41.6587 28.8482 42.8756C29.0103 45.5379 29.1104 45.8196 30.0656 46.2997C30.7161 46.6266 31.1721 46.6608 31.7408 46.4254C32.6537 46.0476 33.1425 45.1866 33.1329 43.9735C33.1304 43.6524 33.2836 40.7378 33.4735 37.4967C33.8538 31.0028 33.8557 31.0596 33.2373 30.1676C32.6404 29.3066 31.4074 28.8629 30.3513 29.129ZM30.2838 48.5673C29.0084 48.9826 28.2014 50.1259 28.2967 51.3822C28.4113 52.8901 29.514 53.9214 31.0172 53.9265C32.0904 53.9302 32.9781 53.3849 33.4798 52.4138C33.7495 51.8919 33.7787 50.7125 33.5358 50.1459C33.3097 49.6181 32.7569 49.0256 32.2525 48.7701C31.787 48.5345 30.7217 48.4248 30.2838 48.5673Z" fill="white"/>
</svg>
